<svg width="47" height="45" viewBox="0 0 47 45" fill="none" xmlns="http://www.w3.org/2000/svg">
<g filter="url(#filter0_d_2208_6)">
<path d="M14.6934 15.752C15.5594 15.9486 16.4254 16.0961 17.2433 16.2928C19.0234 16.6862 20.8035 17.0795 22.6317 17.4237C22.8723 17.4728 23.1128 17.4728 23.3534 17.4237C24.2675 17.1778 25.2297 16.8828 26.1438 16.637C27.3947 16.2928 28.1164 16.637 28.4051 17.9154C28.5494 18.5546 28.8381 18.8004 29.4635 18.9479C31.5323 19.3412 33.5529 19.8329 35.6217 20.2754C35.766 20.3246 35.9104 20.3246 36.1028 20.3738C36.0066 20.9638 35.8623 21.5538 35.766 22.1438C35.4774 23.5697 35.1406 25.0448 34.8519 26.4707C34.6114 27.5524 33.9378 27.9949 32.8794 27.7982C32.302 27.6999 31.7247 27.5524 31.003 27.4049C31.1474 27.9949 31.3398 28.5357 31.436 29.0766C31.5323 29.4208 31.5804 29.765 31.5804 30.06C31.4842 30.7975 31.003 31.1417 30.3295 31.3383C27.2023 32.2234 24.0751 33.1084 20.996 33.9934C18.1093 34.8293 15.1745 35.616 12.2879 36.4519C11.2294 36.7469 10.5077 36.3535 10.2191 35.2227C9.16063 31.4367 8.1503 27.6507 7.09186 23.8647C6.80319 22.7339 7.18808 21.9963 8.34275 21.7013C10.0266 21.2096 11.7105 20.718 13.3944 20.2754C13.6831 20.1771 13.8274 20.0788 13.8755 19.7838C14.1161 18.6529 14.3566 17.4728 14.5972 16.342C14.5972 16.0961 14.6453 15.9486 14.6934 15.752ZM9.59363 28.1916C9.59363 28.2899 9.59363 28.3882 9.59363 28.4374C10.171 30.6008 10.7483 32.7642 11.3737 34.9768C11.47 35.321 11.6624 35.3702 11.9992 35.2718C13.8755 34.731 15.8 34.1901 17.6763 33.6493C21.7176 32.5184 25.7589 31.3383 29.8003 30.2075C30.4738 30.0108 30.4738 30.0108 30.2814 29.3224C29.8484 27.6999 29.4154 26.0773 28.9343 24.4548C28.7899 23.9139 28.6456 23.4222 28.5013 22.8814C22.1506 24.6514 15.8481 26.4215 9.59363 28.1916ZM27.7796 20.2263C27.5872 19.4888 27.3947 18.8496 27.2504 18.2104C27.1542 17.7679 26.9617 17.6695 26.5287 17.817C22.0544 19.0954 17.532 20.3738 13.0576 21.6522C11.5662 22.0455 10.1229 22.488 8.63141 22.8814C8.39086 22.9305 8.10219 23.0289 8.19841 23.3239C8.39086 24.0614 8.5833 24.7989 8.82386 25.5856C15.1745 23.8156 21.429 21.9963 27.7796 20.2263ZM31.7247 20.9146C31.1955 20.8655 31.003 21.0621 30.9068 21.4555C30.7625 22.1438 30.6182 22.783 30.4738 23.4714C30.3776 23.9139 30.57 24.2089 31.003 24.3073C31.6766 24.4548 32.3502 24.6023 33.0237 24.7498C33.4086 24.8481 33.6973 24.6514 33.7935 24.2581C33.9378 23.5206 34.1303 22.8322 34.2265 22.0947C34.2746 21.7505 34.1303 21.4555 33.7935 21.4063C33.0718 21.2096 32.3502 21.0621 31.7247 20.9146Z" fill="black"/>
<path d="M36.9209 17.0739C29.7524 15.5496 22.68 13.9762 15.4634 12.452C15.6077 11.567 15.7039 10.682 15.9445 9.89527C16.1369 9.15774 16.9067 8.86273 17.7727 9.0594C19.1679 9.35441 20.6113 9.69859 22.0065 9.9936C26.6251 10.977 31.2919 12.0095 35.9106 12.9929C36.9209 13.1896 37.3539 13.8779 37.2096 14.9104C37.1615 15.5988 37.0171 16.2872 36.9209 17.0739Z" fill="black"/>
<path d="M12.5285 33.8295C12.3842 33.682 12.0955 33.4853 12.0474 33.2886C11.8069 32.6003 11.6625 31.9119 11.4701 31.1744C11.3739 30.7319 11.5663 30.4369 11.9512 30.3385C12.6247 30.1419 13.2502 29.9452 13.9237 29.7977C14.3567 29.6993 14.6454 29.8468 14.7897 30.2894C14.9822 30.9777 15.1746 31.6169 15.319 32.3053C15.4633 32.7969 15.319 33.092 14.7897 33.2395C14.0681 33.387 13.3464 33.5836 12.5285 33.8295Z" fill="#04CB3A"/>
</g>
<defs>
<filter id="filter0_d_2208_6" x="-4" y="0" width="55" height="52" filterUnits="userSpaceOnUse" color-interpolation-filters="sRGB">
<feFlood flood-opacity="0" result="BackgroundImageFix"/>
<feColorMatrix in="SourceAlpha" type="matrix" values="0 0 0 0 0 0 0 0 0 0 0 0 0 0 0 0 0 0 127 0" result="hardAlpha"/>
<feOffset dy="4"/>
<feGaussianBlur stdDeviation="2"/>
<feComposite in2="hardAlpha" operator="out"/>
<feColorMatrix type="matrix" values="0 0 0 0 0 0 0 0 0 0 0 0 0 0 0 0 0 0 0.25 0"/>
<feBlend mode="normal" in2="BackgroundImageFix" result="effect1_dropShadow_2208_6"/>
<feBlend mode="normal" in="SourceGraphic" in2="effect1_dropShadow_2208_6" result="shape"/>
</filter>
</defs>
</svg>
