<svg width="128" height="146" viewBox="0 0 128 146" fill="none" xmlns="http://www.w3.org/2000/svg">
<path d="M40.5139 118.869C40.5139 124.079 42.3258 129.212 45.5721 133.289C46.1006 133.969 46.7046 134.573 47.233 135.101C47.4595 135.328 47.686 135.554 47.837 135.856C47.988 136.158 48.0635 136.46 48.0635 136.838C48.0635 137.215 47.988 137.517 47.837 137.819C47.686 138.121 47.4595 138.348 47.233 138.574C45.1946 140.612 43.1562 142.651 41.1178 144.689C40.8913 144.991 40.6649 145.218 40.3629 145.369C40.0609 145.52 39.6834 145.595 39.3814 145.595C39.0039 145.595 38.702 145.52 38.4 145.369C38.098 145.218 37.796 144.991 37.645 144.689C31.7563 138.8 28.1325 131.1 27.2265 122.795C27.0755 121.436 27 120.077 27.0755 118.794C27 118.794 40.5139 118.869 40.5139 118.869Z" fill="#333333" fill-opacity="0.5"/>
<path d="M40.5153 118.859H27.0014C26.9259 110.252 29.8703 101.872 35.457 95.3042C36.1365 94.3227 36.9669 93.4923 37.9484 92.7373L47.4609 102.325C44.4411 105.421 42.2517 109.271 41.2702 113.499C40.8172 115.235 40.5908 117.047 40.5153 118.859Z" fill="#808080" fill-opacity="0.5"/>
<path d="M63.9175 82.0206C68.1453 81.8696 72.4486 82.5491 76.4499 84.059C81.1306 85.7199 85.5094 88.3623 89.1333 91.8351C89.4352 92.1371 89.8127 92.5146 90.0392 92.8166L89.0578 93.798C86.1889 96.6669 83.32 99.6112 80.4512 102.48C77.5068 99.6112 73.9585 97.5728 70.0327 96.4404C67.9943 95.9119 65.9559 95.6099 63.9175 95.5344V82.0206Z" fill="#04CB3A" fill-opacity="0.5"/>
<path d="M80.5293 102.401C83.3982 99.532 86.267 96.6631 89.1359 93.7188L90.1173 92.7373C95.1001 97.5691 98.5729 103.835 100.083 110.63C100.762 113.348 101.064 116.066 100.989 118.859H87.475C87.3995 113.574 85.5876 108.441 82.3412 104.288C81.5862 103.684 81.0578 103.08 80.5293 102.401Z" fill="#008C1E" fill-opacity="0.5"/>
<path d="M63.9173 82.0192V95.5331C57.7266 95.5331 51.7624 98.0244 47.3836 102.403L37.8711 92.7397C40.0605 90.3238 42.6274 88.3609 45.4962 86.7755C51.083 83.5291 57.4246 81.8682 63.9173 82.0192Z" fill="#CACACA" fill-opacity="0.5"/>
<path d="M40.5139 118.869C40.5139 124.079 42.3258 129.212 45.5721 133.289C46.1006 133.969 46.7046 134.573 47.233 135.101C47.4595 135.328 47.686 135.554 47.837 135.856C47.988 136.158 48.0635 136.46 48.0635 136.838C48.0635 137.215 47.988 137.517 47.837 137.819C47.686 138.121 47.4595 138.348 47.233 138.574C45.1946 140.612 43.1562 142.651 41.1178 144.689C40.8913 144.991 40.6649 145.218 40.3629 145.369C40.0609 145.52 39.6834 145.595 39.3814 145.595C39.0039 145.595 38.702 145.52 38.4 145.369C38.098 145.218 37.796 144.991 37.645 144.689C31.7563 138.8 28.1325 131.1 27.2265 122.795C27.0755 121.436 27 120.077 27.0755 118.794C27 118.794 40.5139 118.869 40.5139 118.869Z" fill="#333333" fill-opacity="0.5"/>
<path d="M87.3978 118.869C87.3978 124.079 85.5859 129.212 82.3395 133.289C81.8111 133.969 81.2071 134.573 80.6786 135.101C80.4521 135.328 80.2256 135.554 80.0746 135.856C79.9236 136.158 79.8481 136.46 79.8481 136.838C79.8481 137.215 79.9236 137.517 80.0746 137.819C80.2256 138.121 80.4521 138.348 80.6786 138.574C82.717 140.612 84.7554 142.651 86.7938 144.689C87.0203 144.991 87.2468 145.218 87.5488 145.369C87.8508 145.52 88.2282 145.595 88.5302 145.595C88.8322 145.595 89.2097 145.52 89.5117 145.369C89.8137 145.218 90.1156 144.991 90.2666 144.689C96.1554 138.8 99.7792 131.1 100.685 122.795C100.836 121.436 100.912 120.077 100.836 118.794C100.912 118.794 87.3978 118.869 87.3978 118.869Z" fill="url(#paint0_linear_2178_62)" fill-opacity="0.5"/>
<path d="M82.4593 134.236C82.8477 134.883 83.236 135.53 83.6244 136.178C84.0127 136.825 84.6496 138.063 83.9141 139.068C83.5748 139.5 83.2226 139.764 82.6606 139.943C82.1971 140.08 81.6222 140.09 81.2028 139.919C76.6093 136.988 72.0858 134.084 67.5209 131.082C64.6441 129.339 61.9513 127.345 59.3853 125.24C58.6604 124.618 58.1322 123.914 57.661 123.069C57.1898 122.225 57.1537 121.314 57.0476 120.374C57.0114 119.462 57.1436 118.538 57.4156 117.67C57.6876 116.803 58.1694 116.021 58.8608 115.324C59.5523 114.628 60.2567 114.1 61.0725 113.698C61.8882 113.297 62.8567 113.121 63.7682 113.085C64.7211 113.147 65.6456 113.279 66.456 113.691C67.295 114.033 68.077 114.515 68.7036 115.178C71.1529 117.97 73.4054 120.844 75.3757 124.011C77.7654 127.35 80.1266 130.758 82.4593 134.236Z" fill="black" fill-opacity="0.5"/>
<defs>
<linearGradient id="paint0_linear_2178_62" x1="79.8617" y1="132.234" x2="100.961" y2="132.234" gradientUnits="userSpaceOnUse">
<stop stop-color="#008C1E"/>
<stop offset="1" stop-color="#04CB3A"/>
</linearGradient>
</defs>
</svg>
