<svg width="161" height="143" viewBox="0 0 161 143" fill="none" xmlns="http://www.w3.org/2000/svg">
<path d="M41.5628 34.9717C46.151 35.9913 50.7391 36.756 55.0724 37.7756C64.5036 39.8147 73.9348 41.8539 83.621 43.6382C84.8954 43.8931 86.1699 43.8931 87.4444 43.6382C92.2875 42.3637 97.3854 40.8343 102.228 39.5598C108.856 37.7756 112.679 39.5598 114.209 46.1872C114.973 49.5009 116.503 50.7753 119.816 51.54C130.777 53.5792 141.483 56.1282 152.443 58.4223C153.208 58.6772 153.973 58.6772 154.992 58.9321C154.483 61.9909 153.718 65.0496 153.208 68.1084C151.679 75.5004 149.894 83.1474 148.365 90.5394C147.091 96.1472 143.522 98.4413 137.914 97.4217C134.855 96.9119 131.797 96.1472 127.973 95.3825C128.738 98.4413 129.757 101.245 130.267 104.049C130.777 105.833 131.032 107.618 131.032 109.147C130.522 112.97 127.973 114.755 124.405 115.774C107.836 120.362 91.2679 124.951 74.9544 129.539C59.6606 133.872 44.1118 137.95 28.8179 142.284C23.2102 143.813 19.3867 141.774 17.8573 135.911C12.2495 116.284 6.89668 96.657 1.28893 77.0298C-0.240457 71.1672 1.79873 67.3437 7.91628 65.8143C16.8377 63.2653 25.7591 60.7164 34.6806 58.4223C36.2099 57.9125 36.9746 57.4027 37.2295 55.8733C38.504 50.0107 39.7785 43.8931 41.053 38.0305C41.053 36.756 41.3079 35.9913 41.5628 34.9717ZM14.5436 99.4608C14.5436 99.9706 14.5436 100.48 14.5436 100.735C17.6024 111.951 20.6612 123.166 23.9748 134.637C24.4846 136.421 25.5042 136.676 27.2885 136.166C37.2295 133.362 47.4255 130.558 57.3665 127.755C78.7779 121.892 100.189 115.774 121.601 109.912C125.169 108.892 125.169 108.892 124.15 105.324C121.856 96.9119 119.562 88.5002 117.013 80.0886C116.248 77.2847 115.483 74.7358 114.718 71.9319C81.072 81.1082 47.6803 90.2845 14.5436 99.4608ZM110.895 58.1674C109.875 54.3439 108.856 51.0302 108.091 47.7166C107.581 45.4225 106.562 44.9127 104.268 45.6774C80.5622 52.3047 56.6018 58.9321 32.8963 65.5594C24.9944 67.5986 17.3475 69.8927 9.44566 71.9319C8.17117 72.1868 6.64179 72.6966 7.15158 74.226C8.17117 78.0494 9.19077 81.8729 10.4653 85.9513C44.1118 76.7749 77.2485 67.3437 110.895 58.1674ZM131.797 61.736C128.993 61.4811 127.973 62.5007 127.463 64.5398C126.699 68.1084 125.934 71.4221 125.169 74.9907C124.66 77.2847 125.679 78.8141 127.973 79.3239C131.542 80.0886 135.11 80.8533 138.679 81.618C140.718 82.1278 142.247 81.1082 142.757 79.069C143.522 75.2455 144.542 71.677 145.051 67.8535C145.306 66.0692 144.542 64.5398 142.757 64.2849C138.934 63.2653 135.11 62.5007 131.797 61.736Z" fill="white"/>
<path d="M159.327 41.8563C121.348 33.9545 83.8775 25.7977 45.6428 17.8959C46.4075 13.3077 46.9173 8.71958 48.1918 4.64121C49.2114 0.817744 53.2898 -0.711644 57.8779 0.307948C65.27 1.83734 72.9169 3.62162 80.3089 5.15101C104.779 10.249 129.504 15.6018 153.974 20.6998C159.327 21.7194 161.621 25.2879 160.857 30.6408C160.602 34.2094 159.837 37.7779 159.327 41.8563Z" fill="white"/>
<path d="M30.0922 128.749C29.3275 127.984 27.7981 126.965 27.5432 125.945C26.2687 122.376 25.504 118.808 24.4844 114.984C23.9746 112.69 24.9942 111.161 27.0334 110.651C30.602 109.632 33.9156 108.612 37.4842 107.847C39.7783 107.337 41.3077 108.102 42.0724 110.396C43.092 113.965 44.1115 117.278 44.8762 120.847C45.6409 123.396 44.8762 124.925 42.0724 125.69C38.2489 126.455 34.4254 127.474 30.0922 128.749Z" fill="#008D1E"/>
</svg>
