<svg width="30" height="30" viewBox="0 0 30 30" fill="none" xmlns="http://www.w3.org/2000/svg">
<path d="M14.9858 29.9803C18.2451 29.9803 21.5138 29.9335 24.7731 29.999C27.7234 30.0552 30.0461 27.6494 29.9993 24.7661C29.9431 21.2744 29.9806 17.7734 29.9899 14.2816C29.9993 12.6715 29.4186 11.361 28.2198 10.2751C24.9417 7.31694 21.6824 4.34009 18.4044 1.38196C16.372 -0.452826 13.6465 -0.462187 11.6235 1.36324C8.24239 4.39626 4.88941 7.45736 1.53643 10.5091C0.543649 11.4171 0.0378919 12.5873 0.028526 13.9166C0.000428423 17.5861 -0.0183033 21.2463 0.028526 24.9159C0.0659895 27.7149 2.17331 30.0178 5.16102 29.9803C8.42971 29.9522 11.7078 29.9803 14.9858 29.9803ZM15.042 27.0877C11.7921 27.0877 8.55147 27.0596 5.30151 27.1064C4.21507 27.1252 3.14736 26.2827 3.15673 24.9721C3.19419 21.4336 3.17546 17.8857 3.16609 14.3472C3.16609 13.5608 3.4658 12.9243 4.03712 12.4094C7.19341 9.54489 10.3403 6.68038 13.4966 3.82523C14.5456 2.87039 15.5571 2.85166 16.5967 3.79714C19.7905 6.68038 22.9562 9.57298 26.1593 12.4375C26.7493 12.9617 26.9929 13.5515 26.9929 14.3191C26.9835 17.8576 26.9648 21.4055 27.0022 24.944C27.0116 26.0954 26.0937 27.1345 24.8387 27.1158C21.57 27.0596 18.3107 27.0877 15.042 27.0877Z" fill="url(#paint0_radial_2594_2)"/>
<defs>
<radialGradient id="paint0_radial_2594_2" cx="0" cy="0" r="1" gradientUnits="userSpaceOnUse" gradientTransform="translate(30) rotate(137.834) scale(44.6908)">
<stop stop-color="#04CB3A"/>
<stop offset="1" stop-color="#008D1E"/>
</radialGradient>
</defs>
</svg>
