<svg width="149" height="128" viewBox="0 0 149 128" fill="none" xmlns="http://www.w3.org/2000/svg">
<path d="M27.3686 74.0862C27.3686 84.55 31.0081 94.8621 37.529 103.051C38.5905 104.416 39.8037 105.629 40.8653 106.691C41.3202 107.146 41.7752 107.601 42.0785 108.207C42.3818 108.814 42.5334 109.42 42.5334 110.179C42.5334 110.937 42.3818 111.543 42.0785 112.15C41.7752 112.757 41.3202 113.212 40.8653 113.666C36.7708 117.761 32.6763 121.855 28.5818 125.95C28.1268 126.557 27.6719 127.012 27.0653 127.315C26.4587 127.618 25.7004 127.77 25.0938 127.77C24.3356 127.77 23.729 127.618 23.1224 127.315C22.5158 127.012 21.9092 126.557 21.6059 125.95C9.77736 114.121 2.49824 98.6533 0.678461 81.9719C0.375165 79.2423 0.223518 76.5126 0.375167 73.9346C0.223518 73.9346 27.3686 74.0862 27.3686 74.0862Z" fill="#333333" fill-opacity="0.9"/>
<path d="M27.3715 74.066H0.226478C0.0748294 56.7781 5.98912 39.9452 17.2111 26.7517C18.5759 24.7803 20.2441 23.1122 22.2155 21.5957L41.3232 40.855C35.2572 47.0726 30.8594 54.8067 28.888 63.299C27.9781 66.7869 27.5232 70.4265 27.3715 74.066Z" fill="#808080" fill-opacity="0.9"/>
<path d="M74.3806 0.0706556C82.8729 -0.232641 91.5169 1.13219 99.5542 4.16516C108.956 7.50142 117.752 12.8091 125.031 19.7849C125.638 20.3915 126.396 21.1498 126.851 21.7564L124.88 23.7278C119.117 29.4904 113.354 35.4047 107.592 41.1674C101.677 35.4047 94.5498 31.3102 86.6641 29.0355C82.5696 27.9739 78.4751 27.3674 74.3806 27.2157V0.0706556Z" fill="#04CB3A" fill-opacity="0.9"/>
<path d="M107.746 41.0067C113.509 35.2441 119.272 29.4814 125.034 23.5671L127.006 21.5957C137.014 31.3012 143.99 43.888 147.023 57.5364C148.388 62.9957 148.995 68.455 148.843 74.066H121.698C121.546 63.4506 117.907 53.1386 111.386 44.7979C109.869 43.5847 108.808 42.3715 107.746 41.0067Z" fill="#008C1E" fill-opacity="0.9"/>
<path d="M74.3799 0.0687938V27.2138C61.9448 27.2138 49.9646 32.2182 41.169 41.0138L22.0613 21.6029C26.4591 16.7501 31.6151 12.8073 37.3778 9.62264C48.5997 3.10176 61.3382 -0.234503 74.3799 0.0687938Z" fill="#CACACA" fill-opacity="0.9"/>
<path d="M27.3686 74.0862C27.3686 84.55 31.0081 94.8621 37.529 103.051C38.5905 104.416 39.8037 105.629 40.8653 106.691C41.3202 107.146 41.7752 107.601 42.0785 108.207C42.3818 108.814 42.5334 109.42 42.5334 110.179C42.5334 110.937 42.3818 111.543 42.0785 112.15C41.7752 112.757 41.3202 113.212 40.8653 113.666C36.7708 117.761 32.6763 121.855 28.5818 125.95C28.1268 126.557 27.6719 127.012 27.0653 127.315C26.4587 127.618 25.7004 127.77 25.0938 127.77C24.3356 127.77 23.729 127.618 23.1224 127.315C22.5158 127.012 21.9092 126.557 21.6059 125.95C9.77736 114.121 2.49824 98.6533 0.678461 81.9719C0.375165 79.2423 0.223518 76.5126 0.375167 73.9346C0.223518 73.9346 27.3686 74.0862 27.3686 74.0862Z" fill="#333333" fill-opacity="0.9"/>
<path d="M121.543 74.0862C121.543 84.55 117.904 94.8621 111.383 103.051C110.321 104.416 109.108 105.629 108.047 106.691C107.592 107.146 107.137 107.601 106.833 108.207C106.53 108.814 106.378 109.42 106.378 110.179C106.378 110.937 106.53 111.543 106.833 112.15C107.137 112.757 107.592 113.212 108.047 113.666C112.141 117.761 116.236 121.855 120.33 125.95C120.785 126.557 121.24 127.012 121.847 127.315C122.453 127.618 123.211 127.77 123.818 127.77C124.425 127.77 125.183 127.618 125.789 127.315C126.396 127.012 127.003 126.557 127.306 125.95C139.134 114.121 146.414 98.6533 148.233 81.9719C148.537 79.2423 148.688 76.5126 148.537 73.9346C148.688 73.9346 121.543 74.0862 121.543 74.0862Z" fill="url(#paint0_linear_2265_62)" fill-opacity="0.9"/>
<path d="M111.625 104.954C112.405 106.255 113.185 107.555 113.965 108.856C114.745 110.156 116.025 112.643 114.547 114.661C113.866 115.529 113.158 116.06 112.029 116.418C111.098 116.694 109.944 116.715 109.101 116.371C99.8743 110.482 90.788 104.65 81.6184 98.6205C75.84 95.1192 70.4309 91.1134 65.2767 86.884C63.8205 85.6354 62.7595 84.2205 61.813 82.5247C60.8666 80.8289 60.794 78.998 60.5809 77.1098C60.5083 75.2789 60.7738 73.422 61.3202 71.6795C61.8665 69.9371 62.8342 68.3664 64.2232 66.9673C65.6121 65.5683 67.0271 64.5073 68.6656 63.7013C70.3042 62.8953 72.2496 62.5418 74.0805 62.4692C75.9947 62.5942 77.8516 62.8597 79.4795 63.687C81.1647 64.3738 82.7355 65.3414 83.9941 66.6732C88.914 72.281 93.4387 78.0551 97.3962 84.417C102.196 91.1223 106.939 97.9681 111.625 104.954Z" fill="black" fill-opacity="0.9"/>
<defs>
<linearGradient id="paint0_linear_2265_62" x1="106.406" y1="100.932" x2="148.787" y2="100.932" gradientUnits="userSpaceOnUse">
<stop stop-color="#008C1E"/>
<stop offset="1" stop-color="#04CB3A"/>
</linearGradient>
</defs>
</svg>
