<svg width="165" height="130" viewBox="0 0 165 130" fill="none" xmlns="http://www.w3.org/2000/svg">
<path d="M85.8056 0C113.524 0.496528 139.789 11.113 161.524 32.6019C164.979 36.0162 165.547 39.6966 163.32 43.1826C160.449 47.6718 154.838 48.3475 150.738 44.7387C147.222 41.6418 143.828 38.3708 140.086 35.5708C102.544 7.43256 50.3269 10.6267 16.4095 43.0495C15.7952 43.6381 15.1963 44.2524 14.5564 44.8155C10.9835 47.9636 6.26393 47.8305 3.10048 44.4981C-0.0476075 41.1811 -0.0629673 36.6663 3.24892 33.2622C9.64748 26.6948 16.8343 21.0794 24.6866 16.3496C42.6333 5.53347 62.1105 0.122852 85.8056 0Z" fill="black" fill-opacity="0.7"/>
<path d="M81.8916 32.7227C104.517 33.0759 122.791 40.5852 137.897 55.6192C142.094 59.7962 141.808 65.2017 137.359 68.4215C134.109 70.7761 130.449 70.3974 127.045 67.7202C122.704 64.3059 118.486 60.5948 113.721 57.8869C89.6518 44.2196 60.1314 47.8796 39.9581 67.0496C34.1942 72.5268 26.9818 69.2968 25.6253 63.6661C24.9189 60.733 25.7635 58.235 27.7854 56.167C39.9939 43.6821 54.7618 36.1369 72.0327 33.598C75.7337 33.0503 79.496 32.9274 81.8916 32.7227Z" fill="black" fill-opacity="0.8"/>
<path d="M109.735 94.5788C107.012 94.6658 105.112 93.1506 103.224 91.4665C94.7724 83.9418 85.0773 81.408 74.338 85.3546C70.7753 86.6651 67.4941 89.1272 64.5507 91.6099C60.3942 95.1111 55.9306 95.5974 52.4856 92.2241C49.0867 88.8918 49.0867 83.5477 52.4805 79.7802C69.3061 61.0811 98.8828 61.1323 115.473 79.8928C118.027 82.7799 118.713 86.0559 117.132 89.6135C115.729 92.7667 113.205 94.4252 109.735 94.5788Z" fill="black" fill-opacity="0.9"/>
<path d="M83.4685 129.006C74.9149 128.996 67.9635 122.111 67.9174 113.599C67.8765 104.968 74.8688 97.9913 83.5504 98.0118C92.1142 98.0271 99.0298 104.891 99.0809 113.43C99.1321 122.075 92.1807 129.017 83.4685 129.006Z" fill="#04CB3A"/>
</svg>
