<svg width="43" height="34" viewBox="0 0 43 34" fill="none" xmlns="http://www.w3.org/2000/svg">
<path d="M21.376 33.3067C15.9077 33.3067 10.1909 33.3067 4.7226 33.3067C2.23702 33.3067 0.497115 31.8154 0 29.5784C0 29.3298 0 28.8327 0 28.5841C0 20.6303 0 12.6764 0 4.97115C0 1.98846 1.98846 0 4.97115 0C16.1563 0 27.3413 0 38.2779 0C41.2606 0 43.0005 1.98846 43.0005 4.97115C43.0005 12.925 43.0005 20.6303 43.0005 28.5841C43.0005 31.5668 41.012 33.5553 38.0293 33.5553C32.5611 33.3067 27.0928 33.3067 21.376 33.3067ZM34.301 31.3183C34.301 25.1043 34.301 19.1389 34.301 12.925C30.0755 16.6534 25.85 20.3817 21.6245 24.1101C17.399 20.3817 13.1736 16.6534 8.94808 12.925C8.94808 19.1389 8.94808 25.1043 8.94808 31.3183C17.399 31.3183 25.85 31.3183 34.301 31.3183ZM21.6245 15.4106C21.376 15.162 21.1274 15.162 20.8788 14.9135C16.4048 10.9365 11.9308 6.95962 7.45673 2.98269C6.71106 2.23702 5.71683 1.7399 4.47404 1.98846C3.47981 1.98846 2.73414 2.48558 2.23702 3.23125C1.98846 3.97692 1.98846 4.22548 2.48558 4.7226C8.69952 10.1909 14.9135 15.6591 20.8788 21.1274C21.1274 21.376 21.1274 21.376 21.376 21.6245C21.6245 21.376 21.6245 21.376 21.8731 21.1274C25.1043 18.1447 28.5841 15.162 31.8154 12.1793C34.7981 9.69375 37.5322 6.95962 40.5149 4.47404C41.012 4.22548 41.012 3.72837 40.7635 3.47981C40.0178 1.7399 37.5322 1.24279 36.0409 2.48558C32.8096 5.21971 29.8269 7.95385 26.5957 10.688C25.1043 12.4279 23.3644 13.9192 21.6245 15.4106ZM21.6245 12.925C25.6014 9.44519 29.8269 5.71683 33.8039 2.23702C25.6014 2.23702 17.399 2.23702 9.19664 2.23702C13.4221 5.71683 17.399 9.19663 21.6245 12.925ZM2.23702 6.95962C1.98846 6.95962 1.98846 6.95962 2.23702 6.95962C1.98846 7.20817 1.98846 7.45673 1.98846 7.70529C1.98846 14.6649 1.98846 21.376 1.98846 28.3356C1.98846 28.5841 1.98846 28.8327 1.98846 28.8327C1.98846 29.8269 2.73414 30.8212 3.72837 31.0697C4.7226 31.3183 5.71683 31.3183 6.95962 31.3183C6.95962 31.0697 6.95962 31.0697 6.95962 30.8212C6.95962 24.3587 6.95962 17.8962 6.95962 11.4337C6.95962 11.1851 6.71106 10.9365 6.71106 10.688C5.71683 10.1909 4.97115 9.69375 4.47404 8.94808C3.72837 8.2024 2.98269 7.70529 2.23702 6.95962ZM41.012 6.95962C40.7635 7.20817 40.5149 7.20817 40.5149 7.45673C39.2721 8.45096 38.0293 9.69375 36.7865 10.688C36.538 10.9365 36.2894 11.4337 36.2894 11.6822C36.2894 17.8962 36.2894 24.1101 36.2894 30.324C36.2894 30.5726 36.2894 30.8212 36.2894 31.0697C37.0351 31.0697 37.5322 31.0697 38.0293 31.0697C40.0178 31.0697 41.012 30.0755 41.012 28.087C41.012 21.1274 41.012 14.4163 41.012 7.45673C41.012 7.45673 41.012 7.20817 41.012 6.95962Z" fill="url(#paint0_linear_3240_55)"/>
<defs>
<linearGradient id="paint0_linear_3240_55" x1="0" y1="16.6596" x2="43.08" y2="16.6596" gradientUnits="userSpaceOnUse">
<stop stop-color="#008C1E"/>
<stop offset="1" stop-color="#04CB3A"/>
</linearGradient>
</defs>
</svg>
