<svg width="35" height="52" viewBox="0 0 35 52" fill="none" xmlns="http://www.w3.org/2000/svg">
<path d="M0 18.221C0 8.68803 6.6316 1.64195 15.7501 0.398521C23.8323 -0.637667 31.9146 5.16499 33.987 13.4545C34.8159 17.1848 34.4014 20.7078 32.9508 24.0236C30.4639 30.6552 26.9409 36.8723 23.2106 42.8822C21.5527 45.5763 19.8948 48.0632 18.2369 50.7573C17.6152 51.7935 16.7862 51.7935 16.1645 50.9645C10.7764 42.675 5.80265 34.3855 1.86514 25.267C0.82895 22.7802 0 20.0861 0 18.221ZM17.2007 48.4777C18.6514 46.198 19.8948 44.3329 21.1382 42.2605C24.8685 36.2506 28.3916 30.2407 30.8784 23.6091C32.3291 19.8789 32.7435 16.3558 31.5001 12.4183C29.2205 6.20118 22.7961 1.84918 16.1645 2.4709C8.91122 3.29985 3.3158 8.48079 2.27961 15.3196C1.86514 18.6354 2.69409 21.5368 3.93751 24.4381C6.21713 30.0335 9.11846 35.2144 12.227 40.3954C13.8849 43.0895 15.5428 45.7836 17.2007 48.4777Z" fill="url(#paint0_linear_3240_79)"/>
<path d="M17.2 24.0234C13.0553 24.0234 9.53223 20.7076 9.53223 16.5628C9.53223 12.4181 12.848 8.89502 17.2 8.89502C21.3448 8.89502 24.8678 12.2108 24.8678 16.3556C24.8678 20.7076 21.3448 24.0234 17.2 24.0234ZM22.5882 16.5628C22.5882 13.6615 20.1013 11.1746 17.2 11.1746C14.0915 11.1746 11.8118 13.6615 11.8118 16.5628C11.8118 19.4641 14.0915 21.951 17.2 21.951C20.3086 21.951 22.5882 19.4641 22.5882 16.5628Z" fill="url(#paint1_linear_3240_79)"/>
<defs>
<linearGradient id="paint0_linear_3240_79" x1="0" y1="25.9555" x2="34.3853" y2="25.9555" gradientUnits="userSpaceOnUse">
<stop stop-color="#008C1E"/>
<stop offset="1" stop-color="#04CB3A"/>
</linearGradient>
<linearGradient id="paint1_linear_3240_79" x1="9.64538" y1="16.5282" x2="24.7903" y2="16.5282" gradientUnits="userSpaceOnUse">
<stop stop-color="#008C1E"/>
<stop offset="1" stop-color="#04CB3A"/>
</linearGradient>
</defs>
</svg>
