<svg width="62" height="61" viewBox="0 0 62 61" fill="none" xmlns="http://www.w3.org/2000/svg">
<path d="M22.3759 30.384C13.6633 24.3998 12.9052 13.184 19.1277 6.26166C25.3351 -0.64195 35.9673 -0.852117 42.4487 5.77753C49.0934 12.5723 48.6242 24.2366 39.7447 30.3521C39.9605 30.4534 40.1331 30.5528 40.3189 30.6204C52.2815 35.0226 59.1833 43.5175 60.9303 56.1519C61.0823 57.2591 61.0091 58.4 60.9922 59.5259C60.9809 60.299 60.3279 60.9295 59.5642 60.9914C59.3465 61.0083 59.127 60.9952 58.9074 60.9952C40.3245 60.9952 21.7416 60.9952 3.16061 60.9952C1.51493 60.9952 0.929463 60.3966 0.942598 58.7302C1.0383 46.2253 9.33239 34.8387 21.31 30.7611C21.629 30.6542 21.9462 30.5378 22.3759 30.384ZM4.92639 57.2741C22.3421 57.2741 39.6809 57.2741 57.0215 57.2741C56.8039 46.9402 47.9168 33.6397 32.1374 32.936C17.1536 32.268 5.78958 43.9547 4.92639 57.2741ZM43.2218 16.9633C43.2425 10.176 37.81 4.70793 31.0359 4.69667C24.303 4.68729 18.8368 10.0991 18.7899 16.8244C18.743 23.6079 24.1698 29.1004 30.9421 29.123C37.7556 29.1436 43.2012 23.7524 43.2218 16.9633Z" fill="url(#paint0_linear_3265_5)"/>
<defs>
<linearGradient id="paint0_linear_3265_5" x1="2.44357" y1="60.989" x2="50.1065" y2="4.78809" gradientUnits="userSpaceOnUse">
<stop stop-color="#008D1E"/>
<stop offset="1" stop-color="#04CB3A"/>
</linearGradient>
</defs>
</svg>
