<svg width="36" height="37" viewBox="0 0 36 37" fill="none" xmlns="http://www.w3.org/2000/svg">
<path d="M0.141508 36.2787C0.348746 34.828 0.763221 33.5846 0.970459 32.3412C1.38493 30.6833 1.79941 28.8182 2.21388 27.1603C2.21388 26.953 2.21388 26.5385 2.00665 26.3313C-1.10192 19.6997 -0.687442 13.4826 3.87178 7.67992C8.43101 1.87727 14.6481 -0.195111 21.6942 1.46279C28.7403 3.12069 33.2995 7.67992 34.7502 14.9332C36.8226 24.6734 30.191 34.2063 20.2436 35.657C16.7205 36.2787 13.1975 35.657 9.88168 34.2063C9.88168 34.2063 9.4672 34.2063 9.25996 34.2063C6.35864 34.828 3.45731 35.4498 0.555984 36.2787C0.348746 36.2787 0.348746 36.2787 0.141508 36.2787ZM3.66455 32.5484C3.87178 32.5484 4.07902 32.5484 4.28626 32.5484C6.1514 32.134 7.8093 31.7195 9.67444 31.305C9.88168 31.305 10.2962 31.305 10.5034 31.5122C13.612 33.1701 16.7205 33.5846 20.2436 33.1701C28.7403 31.7195 34.3357 23.2227 32.0561 14.9332C29.9837 7.0582 21.9015 2.29174 14.0264 4.36412C7.39482 6.02202 2.8356 11.8247 2.8356 18.6635C2.8356 21.1504 3.66455 23.6372 4.90797 25.9168C5.11521 26.3313 5.11521 26.5385 5.11521 26.953C4.70074 28.4037 4.4935 29.6471 4.07902 31.0978C3.87178 31.5122 3.87178 32.134 3.66455 32.5484Z" fill="url(#paint0_linear_3240_78)"/>
<path d="M9.4668 14.5185C9.4668 13.2751 10.0885 12.0316 10.9175 11.2027C11.7464 10.3737 13.1971 10.581 13.8188 11.8244C14.2333 12.6534 14.4405 13.4823 14.855 14.3113C15.0622 14.933 15.0622 15.3474 14.6477 15.7619C14.6477 15.9692 14.4405 15.9692 14.4405 16.1764C13.6115 17.0053 13.4043 16.7981 14.2333 18.0415C15.4767 19.9067 17.1346 21.3573 19.207 22.1863C19.6214 22.3935 20.0359 22.1863 20.2432 21.9791C20.6576 21.5646 21.0721 21.1501 21.2793 20.5284C21.4866 20.1139 21.9011 20.1139 22.1083 20.3211C23.1445 20.9429 24.3879 21.3573 25.4241 21.9791C25.6313 21.9791 25.6313 22.1863 25.6313 22.3935C25.6313 23.4297 25.4241 24.2587 24.8024 24.8804C23.559 25.9166 22.1083 26.331 20.6576 25.9166C17.1346 25.0876 14.2333 23.2225 11.9536 20.1139C11.1247 18.8705 10.0885 17.6271 9.67403 15.9692C9.67403 15.5547 9.67403 15.1402 9.4668 14.5185Z" fill="url(#paint1_linear_3240_78)"/>
<defs>
<linearGradient id="paint0_linear_3240_78" x1="-0.0657294" y1="18.6716" x2="35.1902" y2="18.6716" gradientUnits="userSpaceOnUse">
<stop stop-color="#008C1E"/>
<stop offset="1" stop-color="#04CB3A"/>
</linearGradient>
<linearGradient id="paint1_linear_3240_78" x1="9.51239" y1="18.3843" x2="25.8854" y2="18.3843" gradientUnits="userSpaceOnUse">
<stop stop-color="#008C1E"/>
<stop offset="1" stop-color="#04CB3A"/>
</linearGradient>
</defs>
</svg>
