<svg width="44" height="42" viewBox="0 0 44 42" fill="none" xmlns="http://www.w3.org/2000/svg">
<path d="M9.57206 10.0895C9.57206 9.83076 9.57206 9.57206 9.57206 9.31335C9.57206 6.98502 9.57206 4.65668 9.57206 2.32834C9.57206 0.776113 10.0895 0 11.6417 0C21.7312 0 31.5619 0 41.6514 0C43.2036 0 43.9797 0.776113 43.9797 2.32834C43.9797 9.57206 43.9797 16.8158 43.9797 24.3182C43.9797 25.8704 43.2036 26.6465 41.6514 26.6465C32.5967 26.6465 23.5421 26.6465 14.4874 26.6465C14.2287 26.6465 13.97 26.6465 13.7113 26.6465C13.7113 26.9052 13.97 26.9052 13.97 26.9052C16.0397 28.9749 18.1093 30.7858 20.6963 32.338C21.2138 32.5967 21.7312 32.5967 22.2486 32.0793C22.766 31.3032 23.2834 30.5271 24.0595 30.0097C24.8356 28.9749 26.1291 28.7162 27.164 29.4923C29.4923 31.0445 31.5619 32.338 33.8903 33.8903C34.9251 34.6664 35.1838 35.7012 34.6664 36.9947C34.4077 37.5121 33.8903 38.2882 33.6316 38.8056C32.5967 41.134 30.5271 41.9101 28.1988 41.9101C25.353 41.9101 22.766 41.134 20.4376 39.8405C17.0745 38.0295 13.97 35.7012 11.383 32.8554C7.50243 29.751 4.65668 26.6465 2.58704 22.766C1.03482 20.1789 0 17.3332 0 14.4874C0 13.7113 0.258704 12.9352 0.258704 12.1591C0.517409 10.8656 1.29352 9.83076 2.32834 9.31335C3.10445 8.79595 4.13927 8.27854 4.91538 7.76113C6.2089 6.98502 7.24372 7.24372 8.01983 8.53724C8.53724 9.05465 9.05465 9.57206 9.57206 10.0895C9.57206 10.0895 9.31336 10.0895 9.57206 10.0895ZM26.6465 1.55223C21.7312 1.55223 16.8158 1.55223 11.9004 1.55223C10.8656 1.55223 10.8656 1.55223 10.8656 2.58704C10.8656 4.91538 10.8656 7.24372 10.8656 9.57206C10.8656 11.6417 11.1243 13.4526 12.4178 15.0049C13.4526 16.2984 13.1939 17.3332 12.1591 18.1093C11.383 18.8854 10.6069 19.4028 9.83076 19.9202C9.31336 20.4376 9.31336 20.6963 9.57206 21.2138C10.3482 22.2486 11.1243 23.2834 11.6417 24.5769C11.9004 24.8356 12.1591 25.0943 12.6765 25.0943C22.2486 25.0943 31.8206 25.0943 41.6514 25.0943C42.4275 25.0943 42.4275 25.0943 42.4275 24.3182C42.4275 17.0745 42.4275 9.83076 42.4275 2.58704C42.4275 1.55223 42.4275 1.55223 41.3927 1.55223C36.736 1.55223 31.8206 1.55223 26.6465 1.55223ZM27.164 40.3579C27.4227 40.3579 27.6814 40.3579 27.9401 40.3579C29.4923 40.3579 30.7858 39.8405 31.5619 38.2882C31.8206 37.5121 32.338 36.9947 32.8554 36.2186C33.1142 35.4425 33.1142 35.1838 32.5967 34.9251C30.5271 33.3729 28.1988 32.0793 26.1291 30.5271C25.6117 30.2684 25.0943 30.2684 24.8356 30.7858C24.3182 31.5619 23.8008 32.338 23.0247 32.8554C22.2486 33.8903 21.2138 34.149 19.9202 33.6316C18.1093 32.5967 16.2984 31.3032 14.7461 30.0097C12.4178 27.6814 9.83076 25.353 8.27854 22.2486C7.50243 20.6963 7.76113 19.6615 9.05465 18.6267C9.83076 18.1093 10.3482 17.5919 11.1243 17.0745C11.6417 16.8158 11.6417 16.2984 11.383 15.781C9.83076 13.7113 8.53724 11.383 6.98502 9.31335C6.72631 8.79595 6.2089 8.53724 5.6915 9.05465C4.91538 9.57206 3.88057 10.0895 3.10445 10.6069C2.32834 11.1243 1.81093 11.6417 1.55223 12.6765C1.29352 14.7461 1.55223 16.8158 2.32834 18.8854C3.62186 22.5073 5.6915 25.353 8.27854 28.1988C11.6417 32.0793 15.2636 35.4425 19.6615 38.0295C21.7312 39.3231 24.3182 40.3579 27.164 40.3579Z" fill="url(#paint0_linear_3240_81)"/>
<path d="M26.6473 14.4875C26.1299 14.2288 25.3538 13.97 24.8364 13.7113C21.2145 10.8656 17.3339 7.76114 13.4534 4.9154C12.6773 4.39799 12.6773 3.88058 12.936 3.62188C13.4534 3.10447 13.9708 3.36317 14.2295 3.88058C18.1101 6.46762 21.9906 9.57207 25.6125 12.4178C26.6473 13.1939 26.906 13.1939 27.6821 12.4178C31.5627 9.57207 35.1845 6.72633 39.0651 3.88058C39.8412 3.36317 40.3586 3.36317 40.6173 3.62188C40.876 4.39799 40.6173 4.65669 40.0999 4.9154C36.2194 7.76114 32.3388 10.8656 28.4582 13.7113C27.9408 13.97 27.4234 14.2288 26.6473 14.4875Z" fill="url(#paint1_linear_3240_81)"/>
<path d="M40.876 22.2483C40.876 23.0245 40.3586 23.2832 39.8412 23.0245C39.5825 23.0245 39.5825 22.7657 39.3238 22.507C36.9955 19.92 34.6671 17.5917 32.3388 15.0046C32.0801 14.7459 32.0801 14.7459 32.0801 14.4872C32.0801 14.2285 32.0801 13.9698 32.3388 13.7111C32.5975 13.4524 32.8562 13.4524 33.1149 13.4524C33.3736 13.4524 33.3736 13.7111 33.6323 13.9698C35.9606 16.5568 38.289 18.8852 40.6173 21.4722C40.6173 21.9896 40.6173 22.2483 40.876 22.2483Z" fill="url(#paint2_linear_3240_81)"/>
<path d="M21.7312 14.4871C21.7312 14.7458 21.4725 15.0045 21.4725 15.2632C19.1442 17.8503 16.8158 20.4373 14.4875 23.0244C13.9701 23.2831 13.4527 23.5418 12.9353 23.0244C12.6766 22.507 12.9353 22.2483 13.194 21.7309C15.5223 19.1438 17.8507 16.5568 20.4377 14.2284C20.6964 13.9697 20.9551 13.9697 21.4725 13.9697C21.4725 13.9697 21.7312 14.2284 21.7312 14.4871Z" fill="url(#paint3_linear_3240_81)"/>
<defs>
<linearGradient id="paint0_linear_3240_81" x1="0" y1="20.9131" x2="44.0002" y2="20.9131" gradientUnits="userSpaceOnUse">
<stop stop-color="#008C1E"/>
<stop offset="1" stop-color="#04CB3A"/>
</linearGradient>
<linearGradient id="paint1_linear_3240_81" x1="12.744" y1="8.90125" x2="40.7529" y2="8.90125" gradientUnits="userSpaceOnUse">
<stop stop-color="#008C1E"/>
<stop offset="1" stop-color="#04CB3A"/>
</linearGradient>
<linearGradient id="paint2_linear_3240_81" x1="31.8961" y1="18.5007" x2="40.7506" y2="18.5007" gradientUnits="userSpaceOnUse">
<stop stop-color="#008C1E"/>
<stop offset="1" stop-color="#04CB3A"/>
</linearGradient>
<linearGradient id="paint3_linear_3240_81" x1="12.7839" y1="18.524" x2="21.822" y2="18.524" gradientUnits="userSpaceOnUse">
<stop stop-color="#008C1E"/>
<stop offset="1" stop-color="#04CB3A"/>
</linearGradient>
</defs>
</svg>
