<svg width="280" height="60" viewBox="0 0 280 60" fill="none" xmlns="http://www.w3.org/2000/svg">
<path d="M129.229 23.0018C130.851 23.0018 132.241 23.5496 133.4 24.666C134.558 25.7825 135.127 27.1518 135.127 28.7949C135.127 30.4591 134.558 31.8495 133.4 32.987C132.262 34.1035 130.872 34.6723 129.208 34.6723C127.565 34.6723 126.153 34.1035 124.995 32.987C123.836 31.8705 123.267 30.4802 123.267 28.8371C123.267 27.1939 123.857 25.8036 125.016 24.6871C126.174 23.5706 127.586 23.0018 129.229 23.0018ZM126.764 26.3092C126.153 26.9833 125.837 27.8048 125.837 28.7949C125.837 29.785 126.153 30.6276 126.785 31.3439C127.417 32.039 128.239 32.3972 129.229 32.3972C130.219 32.3972 131.04 32.0601 131.651 31.3649C132.262 30.6698 132.578 29.8271 132.578 28.8371C132.578 27.847 132.262 27.0043 131.63 26.3092C131.019 25.614 130.198 25.2769 129.208 25.2769C128.218 25.2769 127.396 25.614 126.764 26.3092ZM137.621 23.2336H140.128V29.5322C140.128 31.2175 140.95 32.334 142.614 32.334C144.194 32.334 145.205 31.1964 145.205 29.4901V23.2336H147.712V34.4827H145.268V32.9659C144.404 34.1245 143.267 34.7144 141.834 34.7144C139.117 34.7144 137.621 32.8395 137.621 30.1431V23.2336Z" fill="white"/>
<path d="M168.209 54.0527V46.5271H169.391V54.0527H168.209ZM175.718 54.0527H174.574V51.1789C174.574 50.41 174.199 49.9006 173.44 49.9006C172.719 49.9006 172.258 50.4196 172.258 51.1981V54.0527H171.114V48.9203H172.229V49.6123C172.623 49.0837 173.142 48.8145 173.796 48.8145C175.055 48.8145 175.718 49.6603 175.718 50.8906V54.0527ZM179.993 49.9487H178.734V52.2169C178.734 52.832 179.032 53.0723 179.618 53.0723C179.734 53.0723 179.859 53.0627 179.984 53.0339V54.0046C179.801 54.0719 179.59 54.1103 179.368 54.1103C178.244 54.1103 177.59 53.5144 177.59 52.3995V49.9487H176.648V48.9203H177.59V47.3344H178.734V48.9203H179.993V49.9487ZM185.829 51.8229H181.937C181.946 52.2073 182.1 52.5245 182.398 52.784C182.696 53.0339 183.042 53.1588 183.436 53.1588C184.08 53.1588 184.541 52.8897 184.82 52.3611L185.647 52.9089C185.214 53.7067 184.378 54.1488 183.455 54.1488C182.696 54.1488 182.052 53.8989 181.533 53.3895C181.024 52.8801 180.764 52.2361 180.764 51.4769C180.764 50.7368 181.014 50.1121 181.504 49.5931C181.994 49.0741 182.61 48.8145 183.35 48.8145C184.128 48.8145 184.743 49.0548 185.185 49.545C185.628 50.0352 185.849 50.6695 185.849 51.4673C185.849 51.621 185.839 51.7364 185.829 51.8229ZM183.35 49.7949C182.648 49.7949 182.1 50.2562 181.994 50.9579H184.686C184.647 50.237 184.08 49.7949 183.35 49.7949ZM189.83 48.9011V50.0736C189.734 50.0544 189.628 50.0448 189.503 50.0448C188.629 50.0448 188.167 50.5542 188.167 51.448V54.0527H187.023V48.9203H188.138V49.7372C188.456 49.1606 188.926 48.8722 189.551 48.8722C189.676 48.8722 189.763 48.8818 189.83 48.9011ZM195.4 54.0527H194.257V51.1789C194.257 50.41 193.882 49.9006 193.123 49.9006C192.402 49.9006 191.94 50.4196 191.94 51.1981V54.0527H190.797V48.9203H191.911V49.6123C192.306 49.0837 192.825 48.8145 193.478 48.8145C194.737 48.8145 195.4 49.6603 195.4 50.8906V54.0527ZM201.598 51.8229H197.705C197.715 52.2073 197.869 52.5245 198.167 52.784C198.465 53.0339 198.811 53.1588 199.205 53.1588C199.849 53.1588 200.31 52.8897 200.589 52.3611L201.415 52.9089C200.983 53.7067 200.147 54.1488 199.224 54.1488C198.465 54.1488 197.821 53.8989 197.302 53.3895C196.792 52.8801 196.533 52.2361 196.533 51.4769C196.533 50.7368 196.783 50.1121 197.273 49.5931C197.763 49.0741 198.378 48.8145 199.118 48.8145C199.897 48.8145 200.512 49.0548 200.954 49.545C201.396 50.0352 201.617 50.6695 201.617 51.4673C201.617 51.621 201.607 51.7364 201.598 51.8229ZM199.118 49.7949C198.416 49.7949 197.869 50.2562 197.763 50.9579H200.454C200.416 50.237 199.849 49.7949 199.118 49.7949ZM205.485 49.9487H204.226V52.2169C204.226 52.832 204.524 53.0723 205.111 53.0723C205.226 53.0723 205.351 53.0627 205.476 53.0339V54.0046C205.293 54.0719 205.082 54.1103 204.861 54.1103C203.736 54.1103 203.083 53.5144 203.083 52.3995V49.9487H202.141V48.9203H203.083V47.3344H204.226V48.9203H205.485V49.9487Z" fill="white"/>
<path d="M187.356 4.80566C194.266 4.92992 200.811 7.51454 206.229 12.75C207.093 13.5785 207.229 14.4814 206.678 15.3264C205.966 16.4199 204.567 16.5856 203.541 15.7075C202.668 14.9536 201.82 14.1583 200.887 13.4708C191.528 6.61987 178.514 7.39857 170.061 15.2933C169.909 15.4341 169.756 15.5832 169.603 15.724C168.713 16.4944 167.535 16.4613 166.746 15.6495C165.958 14.8376 165.958 13.7441 166.78 12.9157C168.374 11.3169 170.163 9.95005 172.121 8.79857C176.598 6.14768 181.456 4.83052 187.356 4.80566Z" fill="white"/>
<path d="M186.382 12.7749C192.02 12.8577 196.581 14.6885 200.346 18.3501C201.388 19.369 201.321 20.6862 200.21 21.4649C199.396 22.0365 198.489 21.9453 197.641 21.2909C196.556 20.4625 195.505 19.5512 194.318 18.8968C188.315 15.5666 180.956 16.4613 175.929 21.1252C174.496 22.4589 172.699 21.672 172.36 20.3051C172.182 19.5927 172.394 18.9796 172.894 18.4743C175.937 15.4341 179.617 13.595 183.924 12.9737C184.848 12.8577 185.789 12.8246 186.382 12.7749Z" fill="white"/>
<path d="M193.325 27.8436C192.647 27.8684 192.172 27.4956 191.706 27.0814C189.595 25.2507 187.179 24.6293 184.508 25.5903C183.618 25.9051 182.804 26.5098 182.066 27.1146C181.032 27.9678 179.922 28.0838 179.057 27.2637C178.209 26.4518 178.209 25.1512 179.057 24.2317C183.253 19.6755 190.621 19.6921 194.758 24.2566C195.394 24.9607 195.564 25.756 195.174 26.6258C194.817 27.3962 194.19 27.8021 193.325 27.8436Z" fill="white"/>
<path d="M186.78 36.227C184.652 36.227 182.914 34.5454 182.905 32.4744C182.897 30.3702 184.635 28.672 186.805 28.6803C188.942 28.6803 190.663 30.3536 190.68 32.4329C190.68 34.5371 188.95 36.227 186.78 36.227Z" fill="white"/>
<path d="M252.895 50.8906H249.56V54.0527H248.378V46.5271H253.174V47.6228H249.56V49.8045H252.895V50.8906ZM254.39 47.7861C254.092 47.4882 254.092 47.0269 254.39 46.7289C254.688 46.4214 255.15 46.4214 255.448 46.7289C255.746 47.0269 255.746 47.4882 255.448 47.7861C255.15 48.0841 254.688 48.0841 254.39 47.7861ZM255.496 48.9203V54.0527H254.352V48.9203H255.496ZM256.393 54.0527L258.344 51.4576L256.46 48.9203H257.777L259.007 50.6215L260.247 48.9203H261.535L259.66 51.4384L261.602 54.0527H260.285L258.988 52.265L257.7 54.0527H256.393ZM264.61 48.8145C265.35 48.8145 265.984 49.0644 266.513 49.5738C267.042 50.0832 267.301 50.708 267.301 51.4576C267.301 52.2169 267.042 52.8513 266.513 53.3703C265.994 53.8797 265.36 54.1392 264.6 54.1392C263.851 54.1392 263.207 53.8797 262.678 53.3703C262.149 52.8609 261.89 52.2265 261.89 51.4769C261.89 50.7272 262.159 50.0928 262.688 49.5834C263.216 49.0741 263.86 48.8145 264.61 48.8145ZM263.485 50.3235C263.207 50.6311 263.063 51.0059 263.063 51.4576C263.063 51.9094 263.207 52.2938 263.495 52.6206C263.783 52.9378 264.158 53.1012 264.61 53.1012C265.062 53.1012 265.437 52.9474 265.715 52.6302C265.994 52.313 266.138 51.9286 266.138 51.4769C266.138 51.0251 265.994 50.6407 265.706 50.3235C265.427 50.0063 265.052 49.8526 264.6 49.8526C264.149 49.8526 263.774 50.0063 263.485 50.3235Z" fill="white"/>
<mask id="mask0_2005_45" style="mask-type:luminance" maskUnits="userSpaceOnUse" x="237" y="0" width="42" height="41">
<path d="M278.296 0H237.448V40.8478H278.296V0Z" fill="white"/>
</mask>
<g mask="url(#mask0_2005_45)">
<path d="M237.456 11.3911C237.405 10.2874 237.982 8.78694 239.321 7.57108C240.245 6.72602 241.093 5.79472 241.983 4.93241C243.483 3.49235 245 3.47509 246.484 4.89791C248.06 6.43283 249.628 8.00225 251.163 9.59752C252.68 11.1669 252.646 12.6329 251.112 14.2023C250.23 15.0991 249.357 15.9959 248.45 16.8582C248.018 17.2721 247.958 17.6601 248.213 18.2034C249.713 21.3422 251.993 23.8515 254.502 26.1884C256.164 27.7406 257.995 29.0513 260.037 30.0602C260.58 30.3275 260.944 30.2844 261.36 29.8532C262.241 28.9219 263.148 28.0338 264.055 27.137C265.572 25.6452 267.09 25.6452 268.607 27.137C270.167 28.6546 271.718 30.2068 273.235 31.7762C274.769 33.3456 274.752 34.8805 273.201 36.4586C272.421 37.2605 271.591 38.0107 270.853 38.8385C269.285 40.6149 267.344 41.0978 265.089 40.8046C262.182 40.4338 259.554 39.3301 257.028 37.9245C248.586 33.2249 242.347 26.5247 238.66 17.4963C237.982 15.7544 237.499 13.9436 237.456 11.3911Z" fill="white"/>
<path d="M278.305 19.1261C277.271 19.2986 276.279 19.4624 275.211 19.6522C274.397 15.3147 272.481 11.624 269.354 8.58006C266.243 5.55334 262.522 3.7511 258.131 3.0785C258.275 2.02648 258.419 1.01757 258.546 0.00866699C267.251 0.827864 276.499 8.25238 278.305 19.1261Z" fill="#4AD62B"/>
<path d="M257.705 11.1928C257.849 10.1839 257.976 9.19222 258.12 8.20056C262.799 8.40752 268.962 12.8398 269.996 19.6521C269.487 19.7469 268.97 19.8245 268.462 19.928C267.97 20.0056 267.47 20.1005 266.944 20.1867C265.783 15.2284 262.723 12.2362 257.705 11.1928Z" fill="#4AD62B"/>
</g>
<path d="M217.423 24.1462H212.817V21.744H217.423V17.2924H219.891V21.744H224.497V24.1462H219.891V28.664H217.423V24.1462Z" fill="#4AD62B"/>
<path d="M2.05037 53.1968V45.6712H3.23255V53.1968H2.05037ZM9.5593 53.1968H8.41556V50.3231C8.41556 49.5542 8.04072 49.0448 7.28143 49.0448C6.56059 49.0448 6.09925 49.5638 6.09925 50.3423V53.1968H4.95551V48.0644H6.07042V48.7564C6.46448 48.2278 6.98348 47.9587 7.63705 47.9587C8.89612 47.9587 9.5593 48.8045 9.5593 50.0347V53.1968ZM13.8345 49.0928H12.5754V51.3611C12.5754 51.9762 12.8734 52.2165 13.4597 52.2165C13.575 52.2165 13.6999 52.2069 13.8249 52.178V53.1488C13.6423 53.2161 13.4308 53.2545 13.2098 53.2545C12.0852 53.2545 11.4317 52.6586 11.4317 51.5437V49.0928H10.4898V48.0644H11.4317V46.4786H12.5754V48.0644H13.8345V49.0928ZM19.6707 50.967H15.7781C15.7878 51.3515 15.9415 51.6687 16.2395 51.9282C16.5374 52.178 16.8834 52.303 17.2775 52.303C17.9214 52.303 18.3828 52.0339 18.6615 51.5053L19.4881 52.0531C19.0556 52.8508 18.2194 53.293 17.2967 53.293C16.5374 53.293 15.8935 53.0431 15.3745 52.5337C14.8651 52.0243 14.6056 51.3803 14.6056 50.621C14.6056 49.881 14.8555 49.2562 15.3456 48.7372C15.8358 48.2182 16.4509 47.9587 17.191 47.9587C17.9695 47.9587 18.5846 48.199 19.0267 48.6892C19.4689 49.1793 19.6899 49.8137 19.6899 50.6114C19.6899 50.7652 19.6803 50.8805 19.6707 50.967ZM17.191 48.9391C16.4894 48.9391 15.9415 49.4004 15.8358 50.102H18.527C18.4885 49.3812 17.9214 48.9391 17.191 48.9391ZM23.6712 48.0452V49.2178C23.5751 49.1986 23.4694 49.189 23.3444 49.189C22.4698 49.189 22.0085 49.6983 22.0085 50.5922V53.1968H20.8647V48.0644H21.9796V48.8814C22.2968 48.3047 22.7678 48.0164 23.3925 48.0164C23.5174 48.0164 23.6039 48.026 23.6712 48.0452ZM29.2417 53.1968H28.0979V50.3231C28.0979 49.5542 27.7231 49.0448 26.9638 49.0448C26.243 49.0448 25.7816 49.5638 25.7816 50.3423V53.1968H24.6379V48.0644H25.7528V48.7564C26.1469 48.2278 26.6659 47.9587 27.3194 47.9587C28.5785 47.9587 29.2417 48.8045 29.2417 50.0347V53.1968ZM35.4391 50.967H31.5466C31.5562 51.3515 31.71 51.6687 32.0079 51.9282C32.3059 52.178 32.6519 52.303 33.0459 52.303C33.6899 52.303 34.1512 52.0339 34.4299 51.5053L35.2565 52.0531C34.824 52.8508 33.9878 53.293 33.0652 53.293C32.3059 53.293 31.6619 53.0431 31.1429 52.5337C30.6335 52.0243 30.374 51.3803 30.374 50.621C30.374 49.881 30.6239 49.2562 31.1141 48.7372C31.6042 48.2182 32.2194 47.9587 32.9594 47.9587C33.7379 47.9587 34.3531 48.199 34.7952 48.6892C35.2373 49.1793 35.4583 49.8137 35.4583 50.6114C35.4583 50.7652 35.4487 50.8805 35.4391 50.967ZM32.9594 48.9391C32.2578 48.9391 31.71 49.4004 31.6042 50.102H34.2954C34.2569 49.3812 33.6899 48.9391 32.9594 48.9391ZM39.3268 49.0928H38.0677V51.3611C38.0677 51.9762 38.3657 52.2165 38.952 52.2165C39.0673 52.2165 39.1922 52.2069 39.3172 52.178V53.1488C39.1346 53.2161 38.9231 53.2545 38.7021 53.2545C37.5775 53.2545 36.924 52.6586 36.924 51.5437V49.0928H35.9821V48.0644H36.924V46.4786H38.0677V48.0644H39.3268V49.0928Z" fill="white"/>
<path d="M21.1973 3.94983C28.1069 4.07409 34.652 6.6587 40.0694 11.8942C40.9342 12.7226 41.0699 13.6256 40.5188 14.4705C39.8066 15.564 38.4077 15.7297 37.3819 14.8516C36.5087 14.0978 35.6609 13.3025 34.7283 12.6149C25.3685 5.76404 12.3547 6.54273 3.90208 14.4374C3.74948 14.5782 3.59688 14.7274 3.44427 14.8682C2.55408 15.6386 1.37563 15.6055 0.587175 14.7936C-0.201284 13.9818 -0.20129 12.8883 0.621081 12.0599C2.21495 10.4611 4.00383 9.09422 5.96225 7.94274C10.4387 5.29185 15.2966 3.97468 21.1973 3.94983Z" fill="white"/>
<path d="M20.2231 11.9191C25.861 12.0019 30.4222 13.8327 34.1864 17.4942C35.2292 18.5132 35.1614 19.8303 34.0508 20.609C33.2369 21.1806 32.3298 21.0895 31.4819 20.4351C30.3968 19.6067 29.3455 18.6954 28.1586 18.041C22.1561 14.7108 14.7972 15.6055 9.76967 20.2694C8.33688 21.6031 6.53953 20.8161 6.20041 19.4493C6.02237 18.7368 6.23433 18.1238 6.73453 17.6185C9.77815 14.5782 13.4576 12.7392 17.7645 12.1179C18.6886 12.0019 19.6296 11.9688 20.2231 11.9191Z" fill="white"/>
<path d="M27.1666 26.9877C26.4884 27.0126 26.0136 26.6398 25.5473 26.2256C23.4363 24.3948 21.02 23.7735 18.3495 24.7345C17.4593 25.0493 16.6454 25.654 15.9078 26.2587C14.8734 27.112 13.7628 27.228 12.8981 26.4078C12.0503 25.596 12.0503 24.2954 12.8981 23.3759C17.0947 18.8197 24.4621 18.8362 28.5994 23.4007C29.2353 24.1049 29.4048 24.9001 29.0148 25.77C28.6588 26.5404 28.0314 26.9463 27.1666 26.9877Z" fill="white"/>
<path d="M20.6206 35.3712C18.4926 35.3712 16.7546 33.6895 16.7461 31.6185C16.7376 29.5144 18.4756 27.8161 20.646 27.8244C22.7825 27.8244 24.5035 29.4978 24.5205 31.5771C24.5205 33.6812 22.791 35.3712 20.6206 35.3712Z" fill="white"/>
<path d="M50.2631 24.1462H45.6571V21.744H50.2631V17.2924H52.7313V21.744H57.3373V24.1462H52.7313V28.664H50.2631V24.1462Z" fill="#4AD62B"/>
<path d="M80.624 48.569V47.4734H86.583V48.569H84.1898V54.999H83.0076V48.569H80.624ZM86.0015 49.8666H87.2413L88.7503 53.663L90.2593 49.8666H91.4607L89.3174 54.999H88.1736L86.0015 49.8666Z" fill="white"/>
<mask id="mask1_2005_45" style="mask-type:luminance" maskUnits="userSpaceOnUse" x="67" y="3" width="39" height="36">
<path d="M105.119 3.94983H67.4136V38.5133H105.119V3.94983Z" fill="white"/>
</mask>
<g mask="url(#mask1_2005_45)">
<path d="M80.8662 30.2047C80.4838 30.2047 80.2011 30.2047 79.9101 30.2047C76.7756 30.2047 73.6244 30.2047 70.4816 30.2047C68.3864 30.2047 67.4136 29.2186 67.4136 27.1008C67.4136 20.3956 67.4136 13.6989 67.4136 6.99375C67.4136 4.95304 68.3864 3.94983 70.3901 3.94983C80.9993 3.94983 91.6001 3.94983 102.193 3.94983C104.138 3.94983 105.128 4.97019 105.128 6.96803C105.128 13.7161 105.128 20.4727 105.128 27.2208C105.128 29.1843 104.113 30.2047 102.168 30.2219C98.9998 30.239 95.8321 30.2219 92.6643 30.2219C92.3733 30.2219 92.074 30.2219 91.6749 30.2219C91.6749 31.165 91.6416 32.0482 91.7081 32.9399C91.7248 33.1029 92.0324 33.3258 92.2569 33.403C94.9341 34.3805 97.6363 35.3065 100.297 36.284C100.663 36.4212 101.095 36.687 101.228 37.0214C101.361 37.3386 101.27 37.9474 101.053 38.1618C100.762 38.419 100.18 38.5476 99.798 38.4447C98.7837 38.1875 97.7942 37.7673 96.8048 37.4072C93.9613 36.404 91.1012 35.4008 88.2577 34.3633C86.9357 33.8831 85.6387 33.866 84.3084 34.3461C80.6085 35.6838 76.9003 36.9871 73.2004 38.3075C72.1278 38.6934 71.5043 38.5476 71.2548 37.8274C70.9888 37.0814 71.3546 36.5669 72.4937 36.1639C75.0877 35.2465 77.6818 34.3033 80.2676 33.4201C80.7083 33.2744 80.8995 33.0771 80.8745 32.5798C80.833 31.8338 80.8662 31.0879 80.8662 30.2047ZM86.2706 6.19634C81.0575 6.19634 75.8527 6.19634 70.6562 6.19634C69.6252 6.19634 69.6252 6.19633 69.6252 7.21668C69.6252 13.7847 69.6252 20.3613 69.6252 26.9293C69.6252 27.9325 69.6252 27.9496 70.598 27.9496C81.0575 27.9496 91.5003 27.9496 101.96 27.9496C102.899 27.9496 102.916 27.9325 102.916 26.9893C102.916 20.387 102.916 13.7847 102.916 7.19954C102.916 6.20491 102.916 6.19634 101.943 6.19634C96.7134 6.19634 91.4837 6.19634 86.2706 6.19634ZM83.1444 30.2476C83.1444 30.9935 83.1444 31.6709 83.1444 32.4341C85.2645 31.4737 87.3098 31.5337 89.4051 32.3998C89.4051 31.6195 89.4051 30.9421 89.4051 30.239C87.3015 30.2476 85.2562 30.2476 83.1444 30.2476Z" fill="white"/>
<path d="M81.5147 9.97764C81.2819 10.3806 81.1571 10.715 80.9243 10.9551C78.7626 13.193 76.5759 15.4138 74.3809 17.6346C73.8322 18.1919 73.2169 18.2005 72.743 17.7546C72.2608 17.2916 72.2857 16.5971 72.8345 16.0398C75.0128 13.8018 77.1912 11.5811 79.3862 9.36028C79.7686 8.97443 80.2259 8.76008 80.7165 9.06019C81.0241 9.2574 81.232 9.64324 81.5147 9.97764Z" fill="#4EAE3C"/>
<path d="M72.5268 13.0044C72.2774 12.8072 71.845 12.6443 71.7286 12.3442C71.5956 12.0098 71.579 11.4267 71.7868 11.1866C72.6681 10.1663 73.6243 9.20593 74.6303 8.2799C75.0544 7.8769 75.6031 7.97979 76.0188 8.39994C76.4013 8.80294 76.5177 9.34313 76.1685 9.74613C75.229 10.7922 74.2229 11.7697 73.2252 12.7643C73.0839 12.8844 72.8511 12.9015 72.5268 13.0044Z" fill="#4EAE3C"/>
</g>
</svg>
