<svg width="16" height="20" viewBox="0 0 16 20" fill="none" xmlns="http://www.w3.org/2000/svg">
<path d="M0.00529542 15.5075C0.00529542 14.8617 0.00529542 14.244 0.00529542 13.6216C0.00529542 10.739 0.00529542 7.85643 0.00529542 4.97383C0.00529542 4.6603 0.0146545 4.33741 0.000615871 4.0192C-0.00874323 3.84138 0.0895273 3.7899 0.229914 3.73842C1.11903 3.41554 2.01282 3.08797 2.90194 2.7604C4.77376 2.06783 6.64558 1.37525 8.51272 0.677999C9.09298 0.462739 9.66857 0.233441 10.2488 0.0181821C10.3143 -0.00521565 10.4033 -0.00521565 10.4688 0.0135026C11.9054 0.476778 13.3467 0.940054 14.7833 1.40801C15.1156 1.51564 15.4385 1.64667 15.7754 1.74026C15.9579 1.79173 15.9906 1.88064 15.9906 2.04911C15.986 3.59336 15.9906 5.13293 15.9906 6.67718C15.9906 10.1822 15.986 13.6825 16 17.1875C16 17.4589 15.9251 17.5665 15.6584 17.646C14.0018 18.1327 12.3546 18.6334 10.7074 19.1435C10.4735 19.2184 10.2722 19.2137 10.0383 19.1248C8.43785 18.5352 6.83276 17.9689 5.22767 17.3934C3.71618 16.8505 2.2 16.303 0.68851 15.7602C0.571521 15.7181 0.459212 15.676 0.342223 15.6338C0.346903 15.6198 0.351582 15.6011 0.356262 15.587C3.68342 15.9895 7.01058 16.3919 10.3611 16.7944C10.3611 12.2225 10.3611 7.69732 10.3611 3.12072C10.0523 3.19092 9.76684 3.25643 9.47671 3.32194C8.31618 3.59804 7.16033 3.87881 5.9998 4.15023C5.32127 4.30933 4.64273 4.46376 3.95952 4.60414C3.69278 4.6603 3.58047 4.75389 3.58047 5.06274C3.59451 7.92662 3.58515 10.7905 3.59451 13.6497C3.59451 13.8509 3.53836 13.9586 3.34649 14.0428C2.23744 14.5154 1.14243 15.0068 0.00529542 15.5075Z" fill="#333333"/>
</svg>
