<svg width="27" height="24" viewBox="0 0 27 24" fill="none" xmlns="http://www.w3.org/2000/svg">
<path d="M6.85027 5.88477C7.62136 6.05612 8.39246 6.18463 9.12071 6.35599C10.7057 6.6987 12.2908 7.0414 13.9186 7.34127C14.1328 7.38411 14.347 7.38411 14.5612 7.34127C15.3751 7.12708 16.2319 6.87005 17.0458 6.65586C18.1596 6.35599 18.8022 6.65586 19.0592 7.76966C19.1878 8.32656 19.4448 8.54075 20.0017 8.66927C21.8437 9.01197 23.643 9.44036 25.485 9.8259C25.6135 9.86874 25.742 9.86874 25.9134 9.91158C25.8277 10.4256 25.6992 10.9397 25.6135 11.4538C25.3565 12.6961 25.0566 13.9812 24.7996 15.2236C24.5854 16.166 23.9857 16.5515 23.0432 16.3802C22.5292 16.2945 22.0151 16.166 21.3725 16.0375C21.501 16.5515 21.6724 17.0228 21.7581 17.494C21.8437 17.7939 21.8866 18.0937 21.8866 18.3508C21.8009 18.9933 21.3725 19.2932 20.7728 19.4646C17.9883 20.2357 15.2038 21.0067 12.4621 21.7778C9.8918 22.5061 7.27866 23.1915 4.70835 23.9198C3.7659 24.1768 3.12332 23.8341 2.86629 22.8488C1.92385 19.5502 1.02424 16.2517 0.0817928 12.9531C-0.175238 11.9678 0.16747 11.3253 1.19559 11.0682C2.69494 10.6398 4.19429 10.2115 5.69363 9.8259C5.95066 9.74023 6.07918 9.65455 6.12202 9.39752C6.33621 8.41224 6.5504 7.38411 6.76459 6.39883C6.76459 6.18463 6.80743 6.05612 6.85027 5.88477ZM2.30939 16.7229C2.30939 16.8086 2.30939 16.8943 2.30939 16.9371C2.82346 18.822 3.33752 20.7069 3.89442 22.6346C3.98009 22.9345 4.15145 22.9773 4.45132 22.8916C6.12202 22.4204 7.83556 21.9492 9.50626 21.478C13.1047 20.4927 16.7031 19.4646 20.3016 18.4793C20.9013 18.3079 20.9013 18.3079 20.7299 17.7082C20.3444 16.2945 19.9588 14.8808 19.5305 13.4672C19.4019 12.996 19.2734 12.5676 19.1449 12.0963C13.4902 13.6385 7.87839 15.1807 2.30939 16.7229ZM18.5023 9.78307C18.331 9.14049 18.1596 8.58359 18.0311 8.02669C17.9454 7.64114 17.7741 7.55547 17.3885 7.68398C13.4046 8.79778 9.37774 9.91158 5.39376 11.0254C4.06577 11.3681 2.78062 11.7536 1.45262 12.0963C1.23843 12.1392 0.981401 12.2249 1.06708 12.4819C1.23843 13.1245 1.40979 13.767 1.62398 14.4525C7.27866 12.9103 12.8477 11.3253 18.5023 9.78307ZM22.0151 10.3828C21.5439 10.34 21.3725 10.5113 21.2868 10.854C21.1583 11.4538 21.0298 12.0107 20.9013 12.6104C20.8156 12.996 20.987 13.253 21.3725 13.3387C21.9723 13.4672 22.572 13.5957 23.1717 13.7242C23.5144 13.8099 23.7715 13.6385 23.8571 13.2958C23.9857 12.6532 24.157 12.0535 24.2427 11.4109C24.2855 11.1111 24.157 10.854 23.8571 10.8112C23.2146 10.6398 22.572 10.5113 22.0151 10.3828Z" fill="white"/>
<path d="M26.6421 7.03443C20.2592 5.70643 13.9619 4.3356 7.53613 3.00761C7.66465 2.23652 7.75033 1.46542 7.96452 0.780008C8.13587 0.137431 8.82129 -0.1196 9.59238 0.0517541C10.8347 0.308785 12.1198 0.608654 13.3622 0.865685C17.4747 1.72245 21.63 2.62206 25.7425 3.47883C26.6421 3.65019 27.0276 4.24993 26.8991 5.14953C26.8563 5.74927 26.7278 6.34901 26.6421 7.03443Z" fill="white"/>
<path d="M4.92278 21.6319C4.79426 21.5034 4.53723 21.332 4.49439 21.1607C4.2802 20.5609 4.15168 19.9612 3.98033 19.3186C3.89465 18.9331 4.06601 18.676 4.40871 18.5903C5.00845 18.419 5.56535 18.2476 6.16509 18.1191C6.55064 18.0334 6.80767 18.162 6.93618 18.5475C7.10754 19.1472 7.27889 19.7041 7.40741 20.3039C7.53592 20.7323 7.40741 20.9893 6.93618 21.1178C6.29361 21.2463 5.65103 21.4177 4.92278 21.6319Z" fill="#04CB3A"/>
</svg>
