<svg width="20" height="18" viewBox="0 0 20 18" fill="none" xmlns="http://www.w3.org/2000/svg">
<path d="M5.07314 4.35645C5.64419 4.48335 6.21524 4.57852 6.75457 4.70542C7.9284 4.95922 9.10223 5.21302 10.3078 5.4351C10.4664 5.46682 10.625 5.46682 10.7837 5.4351C11.3864 5.27647 12.0209 5.08612 12.6237 4.9275C13.4486 4.70542 13.9244 4.9275 14.1148 5.75235C14.21 6.16478 14.4003 6.3234 14.8127 6.41858C16.1769 6.67238 17.5094 6.98963 18.8736 7.27515C18.9687 7.30688 19.0639 7.30688 19.1908 7.3386C19.1274 7.71931 19.0322 8.10001 18.9687 8.48071C18.7784 9.40074 18.5563 10.3525 18.366 11.2725C18.2073 11.9705 17.7632 12.256 17.0652 12.1291C16.6845 12.0656 16.3038 11.9705 15.8279 11.8753C15.9231 12.256 16.05 12.605 16.1135 12.9539C16.1769 13.176 16.2086 13.3981 16.2086 13.5884C16.1452 14.0643 15.8279 14.2864 15.3838 14.4133C13.3217 14.9844 11.2595 15.5554 9.22913 16.1265C7.32562 16.6658 5.39039 17.1734 3.48688 17.7127C2.78893 17.9031 2.31306 17.6493 2.1227 16.9196C1.42475 14.4768 0.758526 12.0339 0.0605737 9.59109C-0.129777 8.86141 0.124024 8.38553 0.885426 8.19518C1.9958 7.87793 3.10618 7.56068 4.21656 7.27515C4.40691 7.2117 4.50209 7.14825 4.53381 6.9579C4.69244 6.22823 4.85106 5.46682 5.00969 4.73715C5.00969 4.57852 5.04141 4.48335 5.07314 4.35645ZM1.71028 12.3829C1.71028 12.4463 1.71028 12.5098 1.71028 12.5415C2.09098 13.9374 2.47168 15.3333 2.88411 16.761C2.94756 16.983 3.07446 17.0148 3.29653 16.9513C4.53381 16.6023 5.80282 16.2534 7.0401 15.9044C9.705 15.1747 12.3699 14.4133 15.0348 13.6836C15.479 13.5567 15.479 13.5567 15.3521 13.1126C15.0665 12.0656 14.781 11.0187 14.4638 9.97179C14.3686 9.62281 14.2734 9.30556 14.1782 8.95658C9.99053 10.0987 5.83454 11.2408 1.71028 12.3829ZM13.7024 7.24343C13.5755 6.76755 13.4486 6.35513 13.3534 5.9427C13.2899 5.65717 13.163 5.59372 12.8775 5.6889C9.92708 6.51375 6.94492 7.3386 3.99449 8.16346C3.01101 8.41726 2.05925 8.70278 1.07578 8.95658C0.917151 8.98831 0.726801 9.05176 0.790251 9.24211C0.917151 9.71799 1.04405 10.1939 1.20268 10.7015C5.39039 9.55936 9.51465 8.38553 13.7024 7.24343ZM16.3038 7.68758C15.9548 7.65586 15.8279 7.78276 15.7645 8.03656C15.6693 8.48071 15.5741 8.89313 15.479 9.33729C15.4155 9.62281 15.5424 9.81316 15.8279 9.87661C16.2721 9.97179 16.7162 10.067 17.1604 10.1621C17.4142 10.2256 17.6046 10.0987 17.668 9.84489C17.7632 9.36901 17.8901 8.92486 17.9535 8.44898C17.9853 8.22691 17.8901 8.03656 17.668 8.00483C17.1921 7.87793 16.7162 7.78276 16.3038 7.68758Z" fill="black"/>
<path d="M19.7302 5.20952C15.0032 4.22604 10.3396 3.21084 5.58081 2.22736C5.67599 1.65631 5.73944 1.08526 5.89806 0.577655C6.02496 0.101778 6.53256 -0.0885726 7.10362 0.0383278C8.02364 0.228678 8.9754 0.450754 9.89542 0.641105C12.941 1.27561 16.0184 1.94183 19.064 2.57634C19.7302 2.70324 20.0157 3.14739 19.9206 3.81362C19.8888 4.25777 19.7937 4.70192 19.7302 5.20952Z" fill="black"/>
<path d="M3.64552 16.0206C3.55034 15.9255 3.35999 15.7986 3.32827 15.6717C3.16964 15.2275 3.07447 14.7834 2.94757 14.3075C2.88412 14.022 3.01102 13.8316 3.26482 13.7682C3.70897 13.6413 4.12139 13.5144 4.56555 13.4192C4.85107 13.3557 5.04142 13.4509 5.1366 13.7364C5.2635 14.1806 5.3904 14.593 5.48557 15.0372C5.58075 15.3544 5.48557 15.5448 5.1366 15.6399C4.66072 15.7351 4.18484 15.862 3.64552 16.0206Z" fill="#04CB3A"/>
</svg>
