<svg width="19" height="19" viewBox="0 0 19 19" fill="none" xmlns="http://www.w3.org/2000/svg">
<path d="M8.03491 9.90813C8.03491 9.80436 8.03491 9.7006 8.03491 9.5974C8.03491 6.79857 8.03548 3.99973 8.03491 1.20089C8.03491 0.741683 8.22582 0.386238 8.62426 0.158066C9.00378 -0.0592134 9.39592 -0.0511873 9.76856 0.174118C10.1613 0.411463 10.3315 0.77608 10.331 1.233C10.3281 3.33471 10.3298 5.43641 10.3298 7.53755C10.3298 8.32812 10.3298 9.11927 10.3298 9.97406C10.4456 9.86857 10.5213 9.80436 10.5912 9.73442C11.1863 9.14106 11.7791 8.54483 12.3753 7.95261C12.8764 7.45499 13.5753 7.42633 14.0402 7.87866C14.5229 8.34876 14.5149 9.04933 14.0052 9.56128C12.6849 10.8885 11.3612 12.2128 10.034 13.5331C9.51631 14.0479 8.84842 14.0468 8.33016 13.5314C7.00298 12.2111 5.67923 10.8867 4.35893 9.55956C3.85672 9.05506 3.84182 8.37112 4.30676 7.89758C4.77056 7.42633 5.48087 7.44754 5.99168 7.95376C6.5816 8.53852 7.16923 9.12673 7.75342 9.71779C7.82623 9.79118 7.87324 9.88978 7.93229 9.97635C7.96611 9.95342 8.00051 9.93049 8.03491 9.90813Z" fill="#04CB3A"/>
<path d="M9.14966 18.3497C6.49472 18.3497 3.83921 18.3503 1.18427 18.3492C0.686649 18.3486 0.32146 18.1187 0.113353 17.6698C-0.0867277 17.2393 -0.0167848 16.8282 0.282476 16.4647C0.514662 16.1827 0.824243 16.0543 1.19001 16.0548C1.94447 16.0566 2.69892 16.0548 3.45338 16.0548C7.99963 16.0548 12.5459 16.0543 17.0915 16.0554C17.8145 16.0554 18.3276 16.5031 18.3522 17.1481C18.3774 17.7971 17.8815 18.3366 17.2286 18.3463C16.4552 18.3578 15.6812 18.3497 14.9079 18.3497C12.989 18.3497 11.0691 18.3497 9.14966 18.3497Z" fill="#04CB3A"/>
</svg>
