<svg width="19" height="19" viewBox="0 0 19 19" fill="none" xmlns="http://www.w3.org/2000/svg">
<path d="M8.36767 9.91301C8.36767 9.80925 8.36767 9.70548 8.36767 9.60228C8.36767 6.80345 8.36825 4.00461 8.36767 1.20578C8.36767 0.746566 8.55858 0.391121 8.95702 0.162949C9.33655 -0.0543306 9.72868 -0.0463045 10.1013 0.179001C10.494 0.416346 10.6643 0.780963 10.6637 1.23788C10.6609 3.33959 10.6626 5.44129 10.6626 7.54243C10.6626 8.33301 10.6626 9.12416 10.6626 9.97894C10.7784 9.87345 10.8541 9.80925 10.924 9.7393C11.5191 9.14594 12.1119 8.54971 12.7081 7.9575C13.2092 7.45987 13.908 7.43121 14.373 7.88354C14.8557 8.35364 14.8477 9.05421 14.338 9.56617C13.0177 10.8933 11.6939 12.2177 10.3668 13.538C9.84907 14.0528 9.18118 14.0516 8.66292 13.5363C7.33574 12.2159 6.012 10.8916 4.69169 9.56445C4.18948 9.05995 4.17458 8.376 4.63952 7.90246C5.10332 7.43121 5.81364 7.45242 6.32444 7.95864C6.91437 8.54341 7.502 9.13161 8.08618 9.72268C8.15899 9.79606 8.206 9.89467 8.26505 9.98124C8.29888 9.9583 8.33327 9.93537 8.36767 9.91301Z" fill="black"/>
<path d="M9.48255 18.3546C6.82761 18.3546 4.1721 18.3552 1.51716 18.354C1.01954 18.3535 0.654345 18.1236 0.446239 17.6747C0.246158 17.2441 0.316101 16.8331 0.615362 16.4696C0.847547 16.1876 1.15713 16.0591 1.52289 16.0597C2.27735 16.0614 3.03181 16.0597 3.78627 16.0597C8.33251 16.0597 12.8788 16.0591 17.4244 16.0603C18.1474 16.0603 18.6605 16.508 18.6851 17.153C18.7103 17.802 18.2144 18.3414 17.5614 18.3512C16.7881 18.3626 16.0141 18.3546 15.2407 18.3546C13.3219 18.3546 11.4019 18.3546 9.48255 18.3546Z" fill="black"/>
</svg>
