<svg width="26" height="26" viewBox="0 0 26 26" fill="none" xmlns="http://www.w3.org/2000/svg">
<path d="M11.9573 15.606C11.2249 15.5948 10.2485 15.2196 9.42838 14.4723C9.04104 14.1193 8.9975 13.6365 9.31442 13.2879C9.64541 12.9232 10.1493 12.9077 10.5673 13.2483C11.8119 14.2627 13.1769 14.2077 14.3325 13.0932C16.0381 11.4483 17.7456 9.80524 19.4447 8.15416C20.3475 7.277 20.4934 5.99928 19.825 5.01457C18.9294 3.69543 17.0503 3.50999 15.855 4.6375C14.9395 5.50105 14.0425 6.38316 13.1372 7.2566C13.0617 7.32954 12.988 7.40496 12.9042 7.46801C12.5501 7.73443 12.0776 7.70724 11.7684 7.40805C11.463 7.11257 11.4393 6.65081 11.714 6.30959C11.753 6.26076 11.7985 6.21687 11.8433 6.17299C12.7781 5.26987 13.7013 4.35438 14.6514 3.4661C16.4786 1.75753 19.213 1.84469 20.8897 3.64907C22.3079 5.17529 22.3373 7.60215 20.8616 9.09004C19.0248 10.9414 17.1188 12.7285 15.2365 14.5372C15.0573 14.7097 14.8415 14.8518 14.6264 14.9841C13.933 15.41 13.1724 15.6146 11.9573 15.606Z" fill="black"/>
<path d="M5.57896 22.0181C3.92397 21.9223 2.56476 21.1465 1.8349 19.5405C1.11208 17.95 1.34577 16.4102 2.57372 15.1467C4.23768 13.435 5.96629 11.7778 7.7314 10.1625C9.34286 8.68763 11.8698 8.76058 13.4858 10.2324C13.8814 10.5928 13.9314 11.091 13.6068 11.4415C13.2758 11.7988 12.7694 11.8068 12.3494 11.4619C11.1413 10.4691 9.74876 10.5155 8.63028 11.5929C7.06621 13.0988 5.49957 14.6021 3.94701 16.1197C2.78052 17.2602 2.95594 19.0584 4.29978 19.9368C5.3139 20.6 6.64878 20.4752 7.55662 19.6166C8.33386 18.881 9.09893 18.1336 9.86657 17.3881C10.1067 17.1551 10.3787 17.0135 10.7264 17.0821C11.3724 17.2101 11.6291 17.95 11.1842 18.4384C10.8813 18.7703 10.5433 19.072 10.2181 19.3847C9.67322 19.9077 9.14055 20.4436 8.57715 20.9474C7.77622 21.6632 6.80755 21.9933 5.57896 22.0181Z" fill="black"/>
<path d="M7.4374 7.0515C7.41884 7.50214 7.28119 7.74569 6.99565 7.89651C6.71267 8.04611 6.42456 8.03684 6.1435 7.88168C6.10701 7.86128 6.06924 7.83903 6.03978 7.81059C5.15051 6.95384 4.25547 6.10326 3.37899 5.23537C3.10946 4.96833 3.1069 4.56283 3.30857 4.26302C3.5128 3.95889 3.89566 3.8093 4.25547 3.92675C4.4104 3.97744 4.56342 4.07387 4.68058 4.18514C5.50007 4.96339 6.31764 5.74411 7.11729 6.54153C7.28439 6.70719 7.37338 6.94642 7.4374 7.0515Z" fill="black"/>
<path d="M16.868 16.2227C17.06 16.3216 17.288 16.384 17.4378 16.5249C18.2944 17.3285 19.1382 18.1451 19.9744 18.9685C20.3265 19.3153 20.3214 19.8141 19.9974 20.1356C19.6651 20.465 19.135 20.4718 18.7656 20.1213C17.9211 19.3208 17.0876 18.5086 16.2527 17.6982C15.9768 17.4305 15.907 17.1109 16.053 16.7604C16.1784 16.4576 16.496 16.2703 16.868 16.2227Z" fill="black"/>
<path d="M15.9749 19.9872C15.9749 20.3686 15.9839 20.75 15.973 21.1308C15.9576 21.6859 15.6049 22.0469 15.1029 22.0376C14.6016 22.0284 14.2687 21.6587 14.2668 21.0987C14.2636 20.347 14.263 19.5947 14.2668 18.843C14.2694 18.291 14.6151 17.9238 15.1202 17.9238C15.6151 17.9238 15.9557 18.2706 15.9724 18.814C15.9845 19.204 15.9749 19.5959 15.9749 19.9872Z" fill="black"/>
<path d="M9.14348 4.3255C9.14348 4.71679 9.14924 5.10808 9.14219 5.49937C9.13259 6.00749 8.78431 6.35983 8.29837 6.3654C7.82268 6.37034 7.45711 6.04767 7.44431 5.54697C7.42318 4.72359 7.42254 3.89897 7.44431 3.07559C7.45775 2.56809 7.84765 2.23244 8.32975 2.25283C8.79327 2.27261 9.13323 2.62991 9.14219 3.1201C9.14924 3.52252 9.14348 3.92432 9.14348 4.3255Z" fill="black"/>
<path d="M3.56601 9.64588C3.16075 9.64588 2.75484 9.65206 2.35022 9.64402C1.84572 9.63413 1.47759 9.29786 1.46286 8.84908C1.44814 8.39659 1.78746 8.02138 2.29388 8.00778C3.15691 7.98429 4.02186 7.9849 4.88552 8.00654C5.40027 8.01952 5.73319 8.38114 5.72166 8.84104C5.7095 9.31084 5.34585 9.63722 4.81446 9.64526C4.39831 9.65082 3.98216 9.64649 3.56601 9.64588Z" fill="black"/>
<path d="M19.8065 14.6161C20.2227 14.6161 20.6388 14.6099 21.0543 14.6173C21.5601 14.6266 21.9295 14.9585 21.9474 15.4073C21.9654 15.861 21.628 16.2394 21.1215 16.253C20.2476 16.2764 19.3718 16.2764 18.4985 16.2517C18.0023 16.2375 17.6803 15.8746 17.6886 15.4259C17.697 14.9672 18.0529 14.6291 18.5587 14.6179C18.9742 14.6087 19.3904 14.6161 19.8065 14.6161Z" fill="black"/>
<path d="M1 1L25 25" stroke="#04CB3A" stroke-width="0.730728"/>
<path d="M25 1L1 25" stroke="#04CB3A" stroke-width="0.730728"/>
</svg>
