<svg width="16" height="16" viewBox="0 0 16 16" fill="none" xmlns="http://www.w3.org/2000/svg">
<path d="M7.43418 9.88411C7.00409 9.87735 6.43075 9.64914 5.94915 9.19461C5.72169 8.97993 5.69613 8.68631 5.88223 8.47427C6.0766 8.25245 6.37248 8.24305 6.61798 8.45021C7.34884 9.06716 8.15038 9.0337 8.82899 8.35584C9.83054 7.35542 10.8332 6.35612 11.831 5.35193C12.3611 4.81845 12.4468 4.04134 12.0543 3.44244C11.5284 2.64014 10.4249 2.52736 9.72302 3.2131C9.1854 3.73832 8.65868 4.27481 8.12708 4.80604C8.08271 4.8504 8.03948 4.89627 7.99023 4.93462C7.78232 5.09666 7.50486 5.08012 7.32328 4.89815C7.14394 4.71844 7.13003 4.4376 7.29132 4.23007C7.31425 4.20037 7.34095 4.17368 7.36726 4.14699C7.91616 3.59771 8.45829 3.04092 9.01622 2.50066C10.0892 1.46151 11.6949 1.51452 12.6796 2.61195C13.5123 3.54019 13.5296 5.0162 12.663 5.92114C11.5844 7.04713 10.4652 8.13403 9.35984 9.23408C9.25457 9.33898 9.12788 9.42544 9.00155 9.5059C8.59439 9.76494 8.14775 9.88938 7.43418 9.88411Z" fill="black"/>
<path d="M3.68909 13.7826C2.71724 13.7244 1.91908 13.2525 1.49048 12.2758C1.06603 11.3085 1.20325 10.3719 1.92434 9.60348C2.90146 8.56245 3.91654 7.5545 4.95306 6.57212C5.89935 5.67509 7.38326 5.71945 8.33218 6.61461C8.56452 6.83379 8.59385 7.13681 8.40323 7.34998C8.20886 7.56729 7.91148 7.57217 7.66485 7.36239C6.95542 6.7586 6.13771 6.7868 5.48091 7.44209C4.56244 8.35793 3.64247 9.27226 2.73077 10.1952C2.04577 10.8889 2.14879 11.9825 2.93792 12.5168C3.53344 12.9202 4.31732 12.8442 4.85043 12.322C5.30684 11.8746 5.75611 11.4201 6.20688 10.9667C6.34787 10.825 6.50765 10.7389 6.7118 10.7806C7.09114 10.8584 7.2419 11.3085 6.98061 11.6055C6.80278 11.8073 6.60427 11.9908 6.41329 12.1811C6.09334 12.4991 5.78055 12.8251 5.4497 13.1315C4.97938 13.5668 4.41055 13.7676 3.68909 13.7826Z" fill="black"/>
<path d="M4.78036 4.6797C4.76946 4.95377 4.68863 5.1019 4.52095 5.19363C4.35478 5.28462 4.1856 5.27898 4.02055 5.18461C3.99912 5.17221 3.97694 5.15867 3.95965 5.14138C3.43744 4.6203 2.91185 4.10298 2.39716 3.57513C2.23888 3.41272 2.23738 3.16609 2.35581 2.98375C2.47574 2.79878 2.70056 2.7078 2.91185 2.77923C3.00283 2.81006 3.09269 2.86871 3.16149 2.93638C3.64271 3.40971 4.12281 3.88455 4.59238 4.36953C4.69051 4.47029 4.74277 4.61579 4.78036 4.6797Z" fill="black"/>
<path d="M10.3182 10.2578C10.431 10.318 10.5648 10.3559 10.6528 10.4417C11.1558 10.9304 11.6514 11.427 12.1424 11.9278C12.3491 12.1387 12.3461 12.4421 12.1559 12.6376C11.9608 12.838 11.6495 12.8422 11.4326 12.629C10.9367 12.1421 10.4472 11.6481 9.95691 11.1552C9.79488 10.9924 9.7539 10.7981 9.83961 10.5849C9.9133 10.4007 10.0998 10.2868 10.3182 10.2578Z" fill="black"/>
<path d="M9.79392 12.5479C9.79392 12.7799 9.79918 13.0119 9.79279 13.2434C9.78377 13.5811 9.57661 13.8006 9.28186 13.795C8.98749 13.7893 8.79199 13.5645 8.79086 13.2239C8.78898 12.7667 8.7886 12.3092 8.79086 11.852C8.79236 11.5163 8.99538 11.293 9.29201 11.293C9.58263 11.293 9.78264 11.5039 9.79241 11.8343C9.79956 12.0716 9.79392 12.3099 9.79392 12.5479Z" fill="black"/>
<path d="M5.78202 3.02187C5.78202 3.25985 5.7854 3.49783 5.78127 3.73581C5.77563 4.04485 5.57111 4.25915 5.28576 4.26253C5.00642 4.26554 4.79175 4.06929 4.78423 3.76476C4.77182 3.26399 4.77144 2.76246 4.78423 2.26168C4.79212 1.95302 5.02108 1.74887 5.30418 1.76128C5.57637 1.77331 5.77601 1.99061 5.78127 2.28875C5.7854 2.5335 5.78202 2.77787 5.78202 3.02187Z" fill="black"/>
<path d="M2.50666 6.25794C2.26868 6.25794 2.03032 6.26169 1.79271 6.25681C1.49646 6.25079 1.28028 6.04627 1.27163 5.77332C1.26299 5.49812 1.46224 5.26992 1.75963 5.26165C2.26642 5.24736 2.77434 5.24773 3.28151 5.26089C3.58378 5.26879 3.77928 5.48872 3.77251 5.76844C3.76537 6.05417 3.55182 6.25267 3.23978 6.25756C2.9954 6.26094 2.75103 6.25831 2.50666 6.25794Z" fill="black"/>
<path d="M12.0438 9.28198C12.2882 9.28198 12.5326 9.27822 12.7766 9.28273C13.0736 9.28837 13.2905 9.49026 13.301 9.76321C13.3115 10.0392 13.1134 10.2692 12.816 10.2775C12.3028 10.2918 11.7885 10.2918 11.2757 10.2768C10.9844 10.2681 10.7953 10.0474 10.8001 9.77449C10.805 9.49553 11.0141 9.28988 11.3111 9.28311C11.5551 9.27747 11.7994 9.28198 12.0438 9.28198Z" fill="black"/>
<path d="M1 1L15.0934 15.5968" stroke="#04CB3A" stroke-width="0.730728"/>
<path d="M15.0934 1L1 15.5968" stroke="#04CB3A" stroke-width="0.730728"/>
</svg>
