<svg width="19" height="20" viewBox="0 0 19 20" fill="none" xmlns="http://www.w3.org/2000/svg">
<path d="M10.9637 9.42C10.9637 9.52376 10.9637 9.62753 10.9637 9.73072C10.9637 12.5296 10.9632 15.3284 10.9637 18.1272C10.9637 18.5864 10.7728 18.9419 10.3744 19.1701C9.99488 19.3873 9.60274 19.3793 9.2301 19.154C8.83739 18.9167 8.66712 18.552 8.66769 18.0951C8.67056 15.9934 8.66884 13.8917 8.66884 11.7906C8.66884 11 8.66884 10.2089 8.66884 9.35407C8.55304 9.45955 8.47736 9.52376 8.40742 9.5937C7.81233 10.1871 7.21954 10.7833 6.62332 11.3755C6.12225 11.8731 5.4234 11.9018 4.95846 11.4495C4.47574 10.9794 4.48377 10.2788 4.99343 9.76684C6.31373 8.43966 7.63748 7.11534 8.96466 5.79504C9.48234 5.28022 10.1502 5.28136 10.6685 5.79676C11.9957 7.11706 13.3194 8.44138 14.6397 9.76856C15.1419 10.2731 15.1568 10.957 14.6919 11.4305C14.2281 11.9018 13.5178 11.8806 13.007 11.3744C12.4171 10.7896 11.8294 10.2014 11.2452 9.61033C11.1724 9.53695 11.1254 9.43834 11.0664 9.35177C11.0325 9.3747 10.9981 9.39764 10.9637 9.42Z" fill="black"/>
<path d="M9.85034 0.976433C12.5053 0.976432 15.1608 0.975859 17.8157 0.977006C18.3134 0.977579 18.6785 1.20747 18.8866 1.65636C19.0867 2.08691 19.0168 2.49796 18.7175 2.86143C18.4853 3.14349 18.1758 3.27191 17.81 3.27134C17.0555 3.26962 16.3011 3.27134 15.5466 3.27134C11.0004 3.27134 6.45413 3.27192 1.90846 3.27077C1.18553 3.27077 0.672428 2.82302 0.647776 2.17807C0.622551 1.52909 1.11845 0.989619 1.77144 0.979873C2.54481 0.968407 3.31876 0.976433 4.09214 0.976433C6.01097 0.976433 7.93094 0.976433 9.85034 0.976433Z" fill="black"/>
</svg>
