<svg width="19" height="19" viewBox="0 0 19 19" fill="none" xmlns="http://www.w3.org/2000/svg">
<path d="M10.3171 8.44539C10.3171 8.54915 10.3171 8.65292 10.3171 8.75611C10.3171 11.555 10.3166 14.3538 10.3171 17.1526C10.3171 17.6118 10.1262 17.9673 9.72779 18.1954C9.34827 18.4127 8.95613 18.4047 8.58349 18.1794C8.19078 17.9421 8.02052 17.5774 8.02109 17.1205C8.02395 15.0188 8.02224 12.9171 8.02224 10.816C8.02224 10.0254 8.02224 9.23424 8.02224 8.37946C7.90643 8.48494 7.83075 8.54915 7.76081 8.6191C7.16573 9.21246 6.57294 9.80869 5.97671 10.4009C5.47565 10.8985 4.7768 10.9272 4.31185 10.4749C3.82914 10.0048 3.83716 9.30419 4.34682 8.79223C5.66712 7.46505 6.99087 6.14073 8.31805 4.82043C8.83574 4.30561 9.50363 4.30675 10.0219 4.82215C11.3491 6.14245 12.6728 7.46677 13.9931 8.79395C14.4953 9.29845 14.5102 9.9824 14.0453 10.4559C13.5815 10.9272 12.8712 10.906 12.3604 10.3998C11.7704 9.81499 11.1828 9.22679 10.5986 8.63572C10.5258 8.56234 10.4788 8.46373 10.4198 8.37716C10.3859 8.4001 10.3515 8.42303 10.3171 8.44539Z" fill="#04CB3A"/>
<path d="M9.20337 0.00182323C11.8583 0.00182299 14.5138 0.00125003 17.1688 0.00239639C17.6664 0.00296964 18.0316 0.232864 18.2397 0.681755C18.4398 1.1123 18.3698 1.52335 18.0706 1.88682C17.8384 2.16889 17.5288 2.29731 17.163 2.29673C16.4086 2.29501 15.6541 2.29673 14.8996 2.29673C10.3534 2.29673 5.80715 2.29731 1.26148 2.29616C0.538556 2.29616 0.0254552 1.84841 0.000803367 1.20346C-0.0244218 0.554484 0.471479 0.0150097 1.12446 0.00526357C1.89784 -0.00620243 2.67179 0.0018238 3.44517 0.00182373C5.36399 0.00182356 7.28397 0.00182339 9.20337 0.00182323Z" fill="#04CB3A"/>
</svg>
