<svg width="119" height="93" viewBox="0 0 119 93" fill="none" xmlns="http://www.w3.org/2000/svg">
<path d="M61.3023 0C81.2804 0.357872 100.211 8.00968 115.876 23.4978C118.366 25.9586 118.776 28.6113 117.171 31.1238C115.101 34.3594 111.057 34.8464 108.102 32.2453C105.568 30.0132 103.122 27.6557 100.425 25.6376C73.3666 5.357 35.7311 7.65919 11.2851 31.0278C10.8424 31.4521 10.4107 31.8948 9.94957 32.3007C7.37437 34.5697 3.97275 34.4737 1.6927 32.0719C-0.576282 29.6812 -0.587352 26.4272 1.79969 23.9737C6.41143 19.2402 11.5914 15.1929 17.2509 11.7839C30.1859 3.98824 44.2241 0.0885455 61.3023 0Z" fill="black"/>
<path d="M58.4831 23.6133C74.7902 23.8678 87.9613 29.2802 98.8488 40.116C101.874 43.1265 101.667 47.0225 98.4614 49.3431C96.1186 51.0403 93.4807 50.7673 91.0272 48.8377C87.8986 46.3769 84.8586 43.7021 81.4237 41.7504C64.0762 31.8997 42.7994 34.5376 28.2595 48.3544C24.1052 52.302 18.9069 49.974 17.9292 45.9157C17.42 43.8017 18.0288 42.0012 19.4861 40.5107C28.2853 31.5123 38.9292 26.0741 51.3773 24.2442C54.0447 23.8494 56.7564 23.7609 58.4831 23.6133Z" fill="black"/>
<path d="M78.5492 68.1681C76.5865 68.2308 75.2177 67.1388 73.8563 65.925C67.7651 60.5015 60.7774 58.6753 53.037 61.5198C50.4692 62.4643 48.1043 64.2389 45.9829 66.0283C42.9871 68.5518 39.77 68.9023 37.287 66.471C34.8372 64.0692 34.8372 60.2175 37.2833 57.5021C49.4104 44.0247 70.7277 44.0616 82.685 57.5832C84.5261 59.6641 85.0204 62.0253 83.8804 64.5894C82.8695 66.8621 81.0506 68.0574 78.5492 68.1681Z" fill="black"/>
<path d="M59.6153 93.0014C53.4503 92.9941 48.4401 88.0318 48.4069 81.8964C48.3774 75.676 53.4171 70.6474 59.6743 70.6621C65.8467 70.6732 70.831 75.6207 70.8679 81.7746C70.9048 88.006 65.8946 93.0088 59.6153 93.0014Z" fill="black"/>
</svg>
