<svg width="20" height="16" viewBox="0 0 20 16" fill="none" xmlns="http://www.w3.org/2000/svg">
<path d="M10.3792 0C13.7617 0.0605917 16.9668 1.35613 19.6191 3.97844C20.0407 4.39508 20.1101 4.84421 19.8383 5.2696C19.4879 5.81742 18.8033 5.89988 18.3029 5.4595C17.8738 5.08158 17.4596 4.68242 17.003 4.34074C12.4218 0.907001 6.04967 1.29679 1.9107 5.25336C1.83574 5.3252 1.76266 5.40015 1.68457 5.46887C1.24856 5.85303 0.67263 5.83679 0.286593 5.43014C-0.097571 5.02536 -0.0994454 4.47441 0.304707 4.05902C1.08553 3.25758 1.96255 2.57233 2.92077 1.99515C5.11081 0.675254 7.48763 0.0149918 10.3792 0Z" fill="black"/>
<path d="M9.90209 3.99805C12.6631 4.04115 14.8931 4.95752 16.7365 6.79214C17.2487 7.30186 17.2137 7.96149 16.6709 8.3544C16.2742 8.64174 15.8276 8.59552 15.4122 8.26882C14.8825 7.85218 14.3678 7.3993 13.7862 7.06886C10.8491 5.40103 7.24668 5.84766 4.78491 8.18699C4.08154 8.85538 3.2014 8.46122 3.03587 7.7741C2.94966 7.41617 3.05273 7.11133 3.29947 6.85897C4.78928 5.33544 6.59141 4.41469 8.699 4.10486C9.15063 4.03802 9.60975 4.02303 9.90209 3.99805Z" fill="black"/>
<path d="M13.2993 11.5406C12.967 11.5512 12.7352 11.3663 12.5047 11.1608C11.4734 10.2425 10.2903 9.93333 8.97977 10.4149C8.54501 10.5749 8.1446 10.8753 7.78543 11.1783C7.27821 11.6055 6.7335 11.6649 6.31311 11.2532C5.89834 10.8466 5.89834 10.1944 6.31249 9.73469C8.36573 7.45282 11.975 7.45907 13.9995 9.74844C14.3112 10.1007 14.3949 10.5005 14.2019 10.9347C14.0307 11.3194 13.7228 11.5218 13.2993 11.5406Z" fill="black"/>
<path d="M10.0935 15.7471C9.04973 15.7459 8.20144 14.9057 8.19582 13.8669C8.19083 12.8138 9.04411 11.9624 10.1035 11.9648C11.1486 11.9667 11.9925 12.8044 11.9987 13.8463C12.005 14.9014 11.1567 15.7484 10.0935 15.7471Z" fill="black"/>
</svg>
