<svg id="ev2rVYseUmn1" xmlns="http://www.w3.org/2000/svg" xmlns:xlink="http://www.w3.org/1999/xlink" viewBox="0 0 157 157" shape-rendering="geometricPrecision" text-rendering="geometricPrecision"><style><![CDATA[#ev2rVYseUmn10_tr {animation: ev2rVYseUmn10_tr__tr 5500ms linear infinite normal forwards}@keyframes ev2rVYseUmn10_tr__tr { 0% {transform: translate(78.963547px,84.466514px) rotate(-67.826901deg)} 3.636364% {transform: translate(78.963547px,84.466514px) rotate(-21.89135deg)} 7.272727% {transform: translate(78.963547px,84.466514px) rotate(23.420241deg)} 10.909091% {transform: translate(78.963547px,84.466514px) rotate(70.494409deg)} 14.545455% {transform: translate(78.963547px,84.466514px) rotate(116.96783deg)} 20% {transform: translate(78.963547px,84.466514px) rotate(159.271015deg)} 27.272727% {transform: translate(78.963547px,84.466514px) rotate(208.149465deg)} 29.090909% {transform: translate(78.963547px,84.466514px) rotate(194.033643deg)} 31.090909% {transform: translate(78.963547px,84.466514px) rotate(208.33952deg)} 33.272727% {transform: translate(78.963547px,84.466514px) rotate(192.038964deg)} 35.636364% {transform: translate(78.963547px,84.466514px) rotate(209.124241deg)} 37.818182% {transform: translate(78.963547px,84.466514px) rotate(197.20277deg)} 40.727273% {transform: translate(78.963547px,84.466514px) rotate(209.124241deg)} 42.363636% {transform: translate(78.963547px,84.466514px) rotate(209.124241deg)} 45.454545% {transform: translate(78.963547px,84.466514px) rotate(189.247158deg)} 48.181818% {transform: translate(78.963547px,84.466514px) rotate(209.124241deg)} 50.909091% {transform: translate(78.963547px,84.466514px) rotate(190.554686deg)} 53.272727% {transform: translate(78.963547px,84.466514px) rotate(209.124241deg)} 54.545455% {transform: translate(78.963547px,84.466514px) rotate(209.124241deg)} 56.363636% {transform: translate(78.963547px,84.466514px) rotate(185.371157deg)} 58.181818% {transform: translate(78.963547px,84.466514px) rotate(209.124241deg)} 60% {transform: translate(78.963547px,84.466514px) rotate(188.943846deg)} 61.818182% {transform: translate(78.963547px,84.466514px) rotate(209.124241deg)} 63.636364% {transform: translate(78.963547px,84.466514px) rotate(191.569686deg)} 65.454545% {transform: translate(78.963547px,84.466514px) rotate(209.124241deg)} 67.272727% {transform: translate(78.963547px,84.466514px) rotate(209.124241deg)} 69.090909% {transform: translate(78.963547px,84.466514px) rotate(186.843783deg)} 70.909091% {transform: translate(78.963547px,84.466514px) rotate(209.124241deg)} 72.727273% {transform: translate(78.963547px,84.466514px) rotate(209.124241deg)} 100% {transform: translate(78.963547px,84.466514px) rotate(-67.680197deg)}}]]></style><defs><linearGradient id="ev2rVYseUmn9-fill" x1="100.037" y1="102.48" x2="127.984" y2="102.48" spreadMethod="pad" gradientUnits="userSpaceOnUse" gradientTransform="translate(0 0)"><stop id="ev2rVYseUmn9-fill-0" offset="0%" stop-color="#008c1e"/><stop id="ev2rVYseUmn9-fill-1" offset="100%" stop-color="#04cb3a"/></linearGradient></defs><ellipse rx="77" ry="77" transform="translate(78.500004 78.5)" fill="#fff" stroke-width="0"/><path d="M47.9235,84.7179c.0424,6.9395,2.3909,13.6678,6.6759,19.1261.7066.877,1.4863,1.681,2.2172,2.437.341.276.616.625.8049,1.021.1888.397.2869.83.2869,1.269s-.0981.872-.2869,1.269c-.1889.396-.4639.745-.8049,1.021-2.6801,2.729-5.3765,5.434-8.0891,8.114-.2693.368-.6214.666-1.0278.872s-.8556.314-1.3112.314c-.4557,0-.9049-.108-1.3113-.314s-.7585-.504-1.0278-.872c-7.7537-7.817-12.6097-18.045-13.7661-28.9942-.2396-1.7678-.3212-3.5537-.2437-5.336l17.8839.0731Z" fill="#333"/><path d="M47.9224,84.7177h-17.9325c-.1291-11.4188,3.8484-22.5038,11.2078-31.2356.8976-1.2993,2.01-2.4364,3.2893-3.3623L57.0592,62.8137c-4.0243,4.0906-6.8695,9.1916-8.2353,14.765-.4827,2.353-.784,4.7398-.9015,7.139Z" fill="#808080"/><path d="M78.9175,35.8663c5.6481-.1841,11.2774.7431,16.5681,2.7288c6.2434,2.2254,11.9584,5.7179,16.7874,10.2578.439.4229.854.8702,1.243,1.3399l-1.267,1.2914c-3.769,3.8334-7.553,7.6508-11.354,11.4517-3.8618-3.7935-8.6239-6.5435-13.8396-7.9918-2.6652-.6684-5.3923-1.0603-8.1379-1.1694v-17.9084Z" fill="#04cb3a"/><path d="M100.892,62.9356c3.801-3.801,7.586-7.6183,11.354-11.4517l1.267-1.2914c6.594,6.4382,11.167,14.6603,13.157,23.6585.876,3.5617,1.269,7.2246,1.17,10.891h-17.933c-.051-7.007-2.453-13.7938-6.822-19.2727-.755-.8771-1.462-1.681-2.193-2.5337Z" fill="#008c1e"/><path d="M78.9141,35.8665v17.9083c-8.2139.035-16.0867,3.2891-21.9283,9.0637L44.4135,50.1445c2.8925-3.1654,6.2935-5.8255,10.0626-7.8701c7.3978-4.3521,15.8566-6.5701,24.438-6.4079Z" fill="#cacaca"/><path d="M47.9235,84.7179c.0424,6.9395,2.3909,13.6678,6.6759,19.1261.7066.877,1.4863,1.681,2.2172,2.437.341.276.616.625.8049,1.021.1888.397.2869.83.2869,1.269s-.0981.872-.2869,1.269c-.1889.396-.4639.745-.8049,1.021-2.6801,2.729-5.3765,5.434-8.0891,8.114-.2693.368-.6214.666-1.0278.872s-.8556.314-1.3112.314c-.4557,0-.9049-.108-1.3113-.314s-.7585-.504-1.0278-.872c-7.7537-7.817-12.6097-18.045-13.7661-28.9942-.2396-1.7678-.3212-3.5537-.2437-5.336l17.8839.0731Z" fill="#333"/><path d="M110.003,84.7179c-.032,6.9414-2.381,13.6732-6.676,19.1261-.683.877-1.462,1.681-2.218,2.437-.341.276-.616.625-.804,1.021-.189.397-.287.83-.287,1.269s.098.872.287,1.269c.188.396.463.745.804,1.021c2.681,2.729,5.385,5.434,8.114,8.114.267.367.616.666,1.021.873.404.206.852.313,1.306.313s.901-.107,1.306-.313c.404-.207.754-.506,1.021-.873c7.761-7.811,12.619-18.042,13.766-28.9942.239-1.7678.321-3.5537.243-5.336l-17.883.0731Z" fill="url(#ev2rVYseUmn9-fill)"/><g id="ev2rVYseUmn10_tr" transform="translate(78.963547,84.466514) rotate(-67.826901)"><path d="M48.7261,77.7009c-.8284-.5847-1.6325-1.1694-2.4365-1.7298s-2.1928-1.7299-1.8761-3.338c.1586-.6587.5226-1.2498,1.0395-1.6878.5169-.4381,1.1598-.7002,1.8356-.7486c7.0658,1.2669,14.1559,2.4363,21.1973,3.8007c4.3812.6865,8.7057,1.6963,12.9378,3.0212c1.1715.354,2.2584.9437,3.1941,1.7325s1.7006,1.7602,2.2476,2.855c.5471,1.0947.8649,2.2897.9339,3.5116s-.1121,2.445-.5323,3.5944-1.0707,2.201-1.9116,3.0902-1.8545,1.5973-2.9787,2.0811-2.3352.733-3.5591.7322c-1.2238-.0007-2.4346-.2513-3.5582-.7364-4.3904-2.0903-8.6033-4.5349-12.5966-7.3094-4.6781-2.8995-9.283-5.8964-13.9367-8.8689Z" transform="translate(-78.963547,-84.742)"/></g></svg>