<svg width="100" height="93" viewBox="0 0 100 93" fill="none" xmlns="http://www.w3.org/2000/svg">
<g clip-path="url(#clip0_3221_2)">
<path d="M74.1457 41.3242C71.2155 41.3242 68.9792 43.5573 68.9792 46.4834C68.9792 49.4096 71.2155 51.6427 74.1457 51.6427C77.0759 51.6427 79.3121 49.4096 79.3121 46.4834C79.3121 43.5573 77.0759 41.3242 74.1457 41.3242ZM74.1457 48.2032C73.1175 48.2032 72.4235 47.5102 72.4235 46.4834C72.4235 45.4567 73.1175 44.7637 74.1457 44.7637C75.1738 44.7637 75.8678 45.4567 75.8678 46.4834C75.8678 47.523 75.1738 48.2032 74.1457 48.2032Z" fill="#04CB3A"/>
<path d="M50.0029 82.6509C32.2417 82.6509 17.2436 70.7667 17.2436 56.8291C17.2436 55.8024 16.5496 55.1094 15.5215 55.1094C14.4933 55.1094 13.7993 55.8024 13.7993 56.8291C13.7993 72.6661 30.3525 86.1032 50.0029 86.1032C51.031 86.1032 51.725 85.4102 51.725 84.3835C51.725 83.3568 51.031 82.6509 50.0029 82.6509Z" fill="#04CB3A"/>
<path d="M32.7605 37.8728C43.2733 37.8728 51.7298 29.4409 51.7298 18.93C51.7298 8.41903 43.2733 0 32.7605 0C22.2478 0 13.7913 8.43187 13.7913 18.9428C13.7913 29.4538 22.2478 37.8728 32.7605 37.8728ZM32.7605 3.43948C41.3841 3.43948 48.2727 10.3313 48.2727 18.93C48.2727 27.5287 41.3841 34.4333 32.7605 34.4333C24.137 34.4333 17.2484 27.5415 17.2484 18.9428C17.2484 10.3441 24.137 3.43948 32.7605 3.43948Z" fill="#04CB3A"/>
<path d="M94.8326 48.205H93.1104C92.4164 48.205 91.7353 47.6916 91.5554 46.9986C88.6252 38.2202 81.7237 30.6482 72.419 25.8227V15.4914C72.419 14.7984 72.072 14.1182 71.3909 13.9385C70.6969 13.592 70.0157 13.7717 69.4888 14.285L61.7263 22.0367C60.1712 21.6902 58.4491 21.3436 56.894 21.1768C56.0329 21.01 55.1719 21.6902 54.992 22.55C53.0899 33.3947 43.7852 41.3132 32.7455 41.3132C27.0521 41.3132 21.7057 39.2469 17.5675 35.4609C17.2205 35.1144 16.7064 34.9476 16.3594 34.9476C15.8453 34.9476 15.4983 35.1144 15.1513 35.4609C10.152 41.3132 7.38882 48.0253 6.87475 55.0839C6.18075 54.9171 5.31968 54.5706 4.8056 53.8776C3.94453 53.0177 3.43046 51.6445 3.43046 49.9119V43.0201C3.43046 43.0201 3.43046 43.0201 3.43046 42.8532C3.43046 42.6864 3.43046 40.6202 4.63853 39.0673C5.4996 38.3742 6.87475 37.8609 8.60974 37.8609C9.63789 37.8609 10.3319 37.1678 10.3319 36.1411C10.3319 35.1144 9.63789 34.4214 8.60974 34.4214C5.8466 34.4214 3.77746 35.2813 2.23524 36.8342C-0.000976562 39.2598 -0.000976562 42.5324 -0.000976562 43.0458V49.9376C-0.000976562 52.6968 0.860095 54.7631 2.41517 56.3032C3.79031 57.6764 5.69238 58.2026 6.90045 58.3694C7.24745 65.5949 10.1777 72.6664 15.3441 78.5186L13.789 83.8575C13.6219 84.5506 13.789 85.0639 14.3031 85.5773L21.2045 92.4691C21.8985 93.1621 22.9267 93.1621 23.6207 92.4691L28.1059 87.99C34.8275 91.2627 42.2429 92.9824 50.0054 92.9824C57.7679 92.9824 65.1834 91.2627 71.9049 87.99L76.3902 92.4691C76.7372 92.8156 77.2513 92.9824 77.5983 92.9824C77.9453 92.9824 78.4594 92.8156 78.8064 92.4691L85.7078 85.5773C86.2219 85.0639 86.4018 84.5506 86.2219 83.8575L84.4997 78.5186C87.7769 74.8995 90.0132 70.9466 91.5682 66.6344C91.7353 65.9414 92.4293 65.4281 93.1233 65.4281H94.8454C97.7757 65.4281 100.012 63.195 100.012 60.2688V53.377C99.999 50.4509 97.7628 48.205 94.8326 48.205ZM96.5547 60.256C96.5547 61.2827 95.8607 61.9757 94.8326 61.9757H93.1104C90.8742 61.9757 88.9722 63.349 88.2782 65.4152C86.903 69.5477 84.4869 73.3337 81.3767 76.7732C81.0297 77.2866 80.8627 77.7999 81.0297 78.493L82.5848 83.8319L77.5854 88.8242L73.4472 84.6917C72.9331 84.1784 72.072 83.9987 71.378 84.3452C65.0035 87.7847 57.588 89.5044 49.9926 89.5044C42.3972 89.5044 34.9945 87.7847 28.6072 84.3452C28.4401 84.1784 28.0931 84.1784 27.7461 84.1784C27.232 84.1784 26.885 84.3452 26.538 84.6917L22.3997 88.8242L17.4004 83.8319L18.9555 78.493C19.1225 77.9796 18.9555 77.2866 18.6085 76.7732C13.2621 71.0878 10.3319 64.2088 10.3319 56.8037C10.3319 50.4381 12.5681 44.4062 16.7064 39.0673C21.3587 42.6864 26.885 44.7527 32.7455 44.7527C44.8133 44.7527 55.159 36.4876 57.9222 24.7831C59.2973 24.95 60.5054 25.2965 61.7135 25.643C62.2275 25.8098 62.9215 25.643 63.4356 25.1296L68.949 19.6239V27.0291C68.949 27.7221 69.296 28.2354 69.9772 28.582C78.9477 32.8813 85.4893 39.94 88.2525 48.205C88.9465 50.2712 90.8357 51.6445 93.0847 51.6445H94.8069C95.835 51.6445 96.529 52.3375 96.529 53.3642V60.256H96.5547Z" fill="#04CC3A"/>
<path d="M55.6885 55.6097L48.7871 62.5015C48.0931 63.1945 48.0931 64.2212 48.7871 64.9143C49.1341 65.2608 49.6482 65.4276 49.9952 65.4276C50.3422 65.4276 50.8562 65.2608 51.2032 64.9143L58.1047 58.0225C58.7987 57.3294 58.7987 56.3027 58.1047 55.6097C57.4107 54.9167 56.3825 54.9295 55.6885 55.6097Z" fill="#04CB3A"/>
<path d="M55.6892 48.7297L41.8992 62.5005C41.2052 63.1935 41.2052 64.2202 41.8992 64.9133C42.2462 65.2598 42.7602 65.4266 43.1072 65.4266C43.4542 65.4266 43.9683 65.2598 44.3153 64.9133L58.1053 51.1425C58.7993 50.4495 58.7993 49.4228 58.1053 48.7297C57.4113 48.0367 56.3832 48.0367 55.6892 48.7297Z" fill="#04CB3A"/>
<path d="M43.1072 58.535C43.6213 58.535 43.9683 58.3681 44.3153 58.0216L51.2167 51.1298C51.9107 50.4368 51.9107 49.4101 51.2167 48.717C50.5227 48.024 49.4946 48.024 48.8006 48.717L41.8992 55.6088C41.2052 56.3019 41.2052 57.3286 41.8992 58.0216C42.2462 58.3681 42.5932 58.535 43.1072 58.535Z" fill="#04CB3A"/>
<path d="M32.7593 30.9944C39.4808 30.9944 44.8271 25.6555 44.8271 18.9434C44.8271 17.9167 44.1331 17.2236 43.105 17.2236C42.0768 17.2236 41.3828 17.9167 41.3828 18.9434C41.3828 23.7689 37.5915 27.5549 32.7593 27.5549C31.7311 27.5549 31.0371 28.2479 31.0371 29.2747C31.0371 30.3014 31.7183 30.9944 32.7593 30.9944Z" fill="#04CB3A"/>
</g>
<defs>
<clipPath id="clip0_3221_2">
<rect width="100" height="92.9687" fill="white"/>
</clipPath>
</defs>
</svg>
