<svg width="617" height="331" viewBox="0 0 617 331" fill="none" xmlns="http://www.w3.org/2000/svg">
<circle cx="485.536" cy="127.465" r="106.453" fill="#008D1E"/>
<circle cx="127.466" cy="127.465" r="106.453" fill="#263238"/>
<circle cx="305.534" cy="127.465" r="106.453" fill="#04CC3A" fill-opacity="0.8"/>
<path d="M217.269 135.914V129.875H223.153V125.354H217.269V119.346H212.655V125.354H206.616V129.875H212.655V135.914H217.269Z" fill="white"/>
<path d="M399.207 143.652V137.614H405.091V133.092H399.207V127.084H394.593V133.092H388.554V137.614H394.593V143.652H399.207Z" fill="white"/>
<path d="M125.503 85.6973C145.289 86.0517 164.037 93.63 179.552 108.969C182.019 111.407 182.424 114.034 180.835 116.522C178.785 119.727 174.78 120.209 171.853 117.633C169.343 115.422 166.92 113.087 164.249 111.089C137.451 91.0028 100.177 93.2829 75.9658 116.427C75.5273 116.847 75.0998 117.286 74.6431 117.688C72.0926 119.935 68.7237 119.84 66.4655 117.461C64.2183 115.093 64.2074 111.871 66.5715 109.441C71.1389 104.753 76.2691 100.744 81.8743 97.368C94.6851 89.6472 108.588 85.785 125.503 85.6973Z" fill="#04CB3A"/>
<path d="M122.708 109.057C138.859 109.309 151.903 114.669 162.686 125.401C165.682 128.382 165.478 132.241 162.303 134.539C159.982 136.22 157.37 135.95 154.94 134.039C151.841 131.602 148.83 128.952 145.428 127.02C128.248 117.263 107.175 119.876 92.7748 133.56C88.6604 137.47 83.512 135.164 82.5437 131.145C82.0394 129.051 82.6424 127.268 84.0857 125.792C92.8004 116.88 103.342 111.494 115.671 109.681C118.312 109.29 120.998 109.203 122.708 109.057Z" fill="#04CB3A"/>
<path d="M142.584 153.209C140.64 153.271 139.285 152.19 137.936 150.987C131.904 145.616 124.983 143.807 117.317 146.625C114.774 147.56 112.432 149.318 110.33 151.09C107.363 153.589 104.177 153.936 101.718 151.528C99.2918 149.15 99.2918 145.335 101.714 142.645C113.725 129.298 134.838 129.334 146.68 142.726C148.503 144.787 148.993 147.125 147.864 149.665C146.863 151.916 145.061 153.099 142.584 153.209Z" fill="#04CB3A"/>
<path d="M123.835 177.783C117.729 177.776 112.767 172.861 112.734 166.785C112.705 160.624 117.696 155.644 123.893 155.658C130.006 155.669 134.943 160.569 134.979 166.664C135.016 172.836 130.054 177.79 123.835 177.783Z" fill="#04CB3A"/>
<g clip-path="url(#clip0_2572_499)">
<path d="M474.425 153.515C473.363 153.515 472.588 153.515 471.771 153.515C463.075 153.515 454.338 153.515 445.641 153.515C439.844 153.515 437.149 150.854 437.149 145.168C437.149 127.144 437.149 109.159 437.149 91.1348C437.149 85.6509 439.844 82.9492 445.397 82.9492C474.792 82.9492 504.188 82.9492 533.543 82.9492C538.932 82.9492 541.667 85.6912 541.667 91.0542C541.667 109.2 541.667 127.345 541.667 145.491C541.667 150.773 538.85 153.515 533.461 153.555C524.683 153.596 515.905 153.555 507.127 153.555C506.311 153.555 505.494 153.555 504.392 153.555C504.392 156.096 504.31 158.475 504.474 160.854C504.514 161.297 505.372 161.902 505.984 162.104C513.415 164.725 520.886 167.225 528.276 169.846C529.297 170.209 530.481 170.935 530.848 171.822C531.216 172.669 530.971 174.322 530.358 174.886C529.542 175.572 527.949 175.935 526.888 175.652C524.071 174.967 521.335 173.838 518.6 172.87C510.72 170.168 502.8 167.467 494.92 164.685C491.246 163.394 487.653 163.354 483.978 164.644C473.731 168.233 463.442 171.741 453.195 175.29C450.214 176.338 448.499 175.935 447.805 173.999C447.07 171.983 448.091 170.612 451.235 169.523C458.42 167.064 465.606 164.523 472.792 162.144C474.016 161.741 474.547 161.217 474.466 159.886C474.343 157.91 474.425 155.894 474.425 153.515ZM489.408 88.9977C474.956 88.9977 460.543 88.9977 446.131 88.9977C443.274 88.9977 443.274 88.9977 443.274 91.7397C443.274 109.401 443.274 127.063 443.274 144.724C443.274 147.426 443.274 147.466 445.968 147.466C474.956 147.466 503.902 147.466 532.889 147.466C535.502 147.466 535.543 147.426 535.543 144.886C535.543 127.144 535.543 109.401 535.543 91.6994C535.543 89.038 535.543 88.9977 532.849 88.9977C518.355 88.9977 503.861 88.9977 489.408 88.9977ZM480.753 153.636C480.753 155.652 480.753 157.467 480.753 159.523C486.632 156.942 492.307 157.104 498.105 159.442C498.105 157.346 498.105 155.531 498.105 153.636C492.266 153.636 486.591 153.636 480.753 153.636Z" fill="white"/>
<path d="M476.221 99.1585C475.568 100.247 475.241 101.134 474.588 101.78C468.586 107.788 462.544 113.756 456.461 119.723C454.95 121.215 453.235 121.256 451.929 120.046C450.582 118.796 450.663 116.941 452.174 115.449C458.216 109.441 464.259 103.473 470.342 97.5053C471.403 96.4568 472.669 95.8923 474.016 96.6988C474.874 97.223 475.445 98.2714 476.221 99.1585Z" fill="#04CC3A"/>
<path d="M451.317 107.305C450.623 106.781 449.439 106.338 449.112 105.531C448.745 104.644 448.704 103.072 449.276 102.426C451.725 99.6844 454.379 97.1037 457.155 94.6036C458.339 93.5149 459.85 93.7972 460.993 94.9262C462.055 96.015 462.381 97.4666 461.401 98.5553C458.788 101.378 456.012 103.999 453.236 106.66C452.868 106.983 452.215 107.023 451.317 107.305Z" fill="#04CC3A"/>
</g>
<g clip-path="url(#clip1_2572_499)">
<path d="M253.275 102.623C253.141 99.5905 254.747 95.4588 258.496 92.1182C261.084 89.7886 263.449 87.2393 265.948 84.8657C270.143 80.9098 274.382 80.8658 278.533 84.7778C282.95 88.9974 287.324 93.305 291.608 97.7004C295.847 102.008 295.758 106.052 291.474 110.359C289.019 112.821 286.565 115.282 284.021 117.656C282.817 118.799 282.638 119.854 283.352 121.348C287.547 129.963 293.928 136.864 300.934 143.281C305.575 147.545 310.707 151.149 316.419 153.918C317.937 154.666 318.963 154.534 320.123 153.347C322.578 150.798 325.121 148.336 327.665 145.875C331.904 141.787 336.144 141.787 340.383 145.875C344.756 150.05 349.085 154.314 353.324 158.622C357.608 162.929 357.564 167.149 353.235 171.5C351.048 173.698 348.728 175.764 346.675 178.049C342.302 182.928 336.858 184.247 330.565 183.456C322.444 182.445 315.081 179.412 308.03 175.544C284.423 162.621 266.975 144.204 256.666 119.414C254.747 114.623 253.409 109.656 253.275 102.623Z" fill="white"/>
<path d="M367.47 123.899C364.569 124.382 361.803 124.822 358.813 125.349C356.537 113.438 351.182 103.284 342.435 94.9327C333.734 86.6253 323.336 81.6584 311.064 79.8123C311.466 76.9113 311.867 74.1422 312.224 71.373C336.59 73.6147 362.427 94.0097 367.47 123.899Z" fill="#008D1E"/>
<path d="M309.904 102.096C310.305 99.3273 310.662 96.6021 311.064 93.877C324.139 94.4484 341.364 106.624 344.265 125.348C342.837 125.612 341.409 125.832 339.981 126.096C338.598 126.315 337.214 126.579 335.742 126.799C332.484 113.173 323.916 104.954 309.904 102.096Z" fill="#008D1E"/>
</g>
<path d="M90.9374 296.361L94.8572 283.341H94.903L98.7998 296.361H102.811L108.129 278.413H104.301L100.771 291.25L96.8973 278.413H92.9317L89.0577 291.158L85.6423 278.413H81.6767L86.9489 296.361H90.9374ZM114.351 278.413H110.637V296.361H114.351V278.413ZM125.485 287.146H117.92V290.677H125.485V287.146ZM132.751 285.748V281.943H140.866V278.413H129.038V296.361H132.751V289.278H140.018V285.748H132.751ZM147.638 278.413H143.924V296.361H147.638V278.413ZM160.559 286.505C160.628 285.083 160.995 283.914 161.66 282.975C162.347 282.035 163.356 281.553 164.685 281.553C165.786 281.553 166.863 281.966 167.917 282.791L169.843 279.949C168.307 278.757 166.611 278.161 164.754 278.161C162.141 278.161 160.124 279.055 158.725 280.866C157.327 282.677 156.639 285.038 156.639 287.972C156.639 290.745 157.144 292.762 158.152 294.069C159.459 295.742 161.316 296.591 163.677 296.591C165.442 296.591 167 296.017 168.353 294.894C169.705 293.771 170.37 292.258 170.37 290.379C170.37 288.797 169.82 287.444 168.72 286.344C167.642 285.221 166.244 284.671 164.525 284.671C162.897 284.671 161.591 285.29 160.559 286.505ZM160.559 290.493C160.559 288.843 161.958 287.811 163.608 287.811C165.373 287.811 166.634 288.889 166.634 290.516C166.634 291.273 166.336 291.937 165.763 292.464C165.19 292.992 164.479 293.244 163.631 293.244C162.806 293.244 162.095 292.969 161.476 292.442C160.857 291.914 160.559 291.25 160.559 290.493Z" fill="black"/>
<path d="M267.004 280.748H270.695V266.398H276.081V262.8H261.617V266.398H267.004V280.748ZM287.709 275.613C287.732 275.338 287.755 274.903 287.755 274.33C287.755 272.519 287.182 271.029 286.058 269.906C284.935 268.782 283.468 268.209 281.657 268.209C279.892 268.209 278.356 268.828 277.073 270.089C275.812 271.35 275.17 272.84 275.17 274.605C275.17 276.484 275.812 278.02 277.096 279.235C278.402 280.427 279.984 281.023 281.886 281.023C284.385 281.023 286.127 280.106 287.159 278.249L284.568 276.553C284.018 277.447 282.918 278.02 281.841 278.02C280.305 278.02 279.021 277.103 278.815 275.613H287.709ZM278.906 273.252C278.975 272.771 279.25 272.29 279.732 271.831C280.213 271.35 280.832 271.121 281.565 271.121C283.193 271.121 284.087 272.175 284.179 273.252H278.906ZM293.897 262.066H290.298V280.748H293.897V262.066ZM308.975 275.613C308.998 275.338 309.021 274.903 309.021 274.33C309.021 272.519 308.448 271.029 307.324 269.906C306.201 268.782 304.734 268.209 302.923 268.209C301.158 268.209 299.622 268.828 298.339 270.089C297.078 271.35 296.436 272.84 296.436 274.605C296.436 276.484 297.078 278.02 298.362 279.235C299.668 280.427 301.25 281.023 303.152 281.023C305.651 281.023 307.393 280.106 308.425 278.249L305.834 276.553C305.284 277.447 304.184 278.02 303.107 278.02C301.571 278.02 300.287 277.103 300.081 275.613H308.975ZM300.173 273.252C300.241 272.771 300.516 272.29 300.998 271.831C301.479 271.35 302.098 271.121 302.832 271.121C304.459 271.121 305.353 272.175 305.445 273.252H300.173ZM319.407 262.272C318.88 262.112 318.329 262.02 317.733 262.02C314.272 262.02 312.576 264.106 312.576 267.292V268.507H310.375V271.556H312.576V280.748H316.152V271.556H319.338V268.507H316.129V267.224C316.129 265.825 316.931 265.069 318.306 265.069C318.742 265.069 319.109 265.115 319.407 265.207V262.272ZM320.366 274.651C320.366 276.484 321.008 277.997 322.292 279.212C323.575 280.427 325.157 281.023 327.037 281.023C328.893 281.023 330.475 280.404 331.782 279.189C333.088 277.951 333.73 276.416 333.73 274.582C333.73 272.771 333.088 271.281 331.804 270.066C330.521 268.851 328.939 268.232 327.082 268.232C325.226 268.232 323.621 268.851 322.315 270.089C321.008 271.304 320.366 272.84 320.366 274.651ZM324.034 274.605C324.034 273.711 324.332 272.954 324.905 272.381C325.478 271.785 326.188 271.487 327.037 271.487C327.885 271.487 328.618 271.785 329.191 272.381C329.764 272.954 330.062 273.711 330.062 274.605C330.062 276.439 328.779 277.745 327.059 277.745C326.211 277.745 325.478 277.447 324.905 276.874C324.332 276.278 324.034 275.522 324.034 274.605ZM347.739 280.748V273.138C347.739 271.762 347.372 270.616 346.616 269.676C345.882 268.737 344.782 268.278 343.315 268.278C342.787 268.278 342.146 268.301 341.068 268.92C340.541 269.218 340.151 269.608 339.853 270.112H339.83V268.507H336.277V280.748H339.853V273.963C339.853 272.611 340.61 271.579 342.054 271.579C343.452 271.579 344.186 272.519 344.186 273.963V280.748H347.739ZM362.7 275.613C362.723 275.338 362.746 274.903 362.746 274.33C362.746 272.519 362.172 271.029 361.049 269.906C359.926 268.782 358.459 268.209 356.648 268.209C354.883 268.209 353.347 268.828 352.064 270.089C350.803 271.35 350.161 272.84 350.161 274.605C350.161 276.484 350.803 278.02 352.087 279.235C353.393 280.427 354.975 281.023 356.877 281.023C359.376 281.023 361.118 280.106 362.15 278.249L359.559 276.553C359.009 277.447 357.909 278.02 356.831 278.02C355.296 278.02 354.012 277.103 353.806 275.613H362.7ZM353.897 273.252C353.966 272.771 354.241 272.29 354.723 271.831C355.204 271.35 355.823 271.121 356.556 271.121C358.184 271.121 359.078 272.175 359.17 273.252H353.897ZM268.234 286.8H264.52V304.748H268.234V286.8ZM275.586 286.066H271.987V304.748H275.586V286.066ZM280.646 286.02C279.454 286.02 278.446 287.029 278.446 288.244C278.446 289.459 279.454 290.444 280.646 290.444C281.907 290.444 282.893 289.459 282.893 288.244C282.893 286.983 281.907 286.02 280.646 286.02ZM282.48 304.748V292.507H278.881V304.748H282.48ZM299.277 295.579C300.607 295.579 301.272 296.358 301.272 297.917V304.748H304.848V297.115C304.848 294.158 303.404 292.232 300.538 292.232C298.819 292.232 297.673 292.828 296.481 294.181C295.793 292.874 294.601 292.232 292.905 292.232C291.438 292.232 289.994 292.92 289.329 294.112H289.283V292.507H285.776V304.748H289.352V297.963C289.352 296.519 290.086 295.579 291.53 295.579C292.859 295.579 293.524 296.381 293.524 297.963V304.748H297.077V297.917C297.077 296.473 297.879 295.579 299.277 295.579ZM309.792 286.02C308.6 286.02 307.592 287.029 307.592 288.244C307.592 289.459 308.6 290.444 309.792 290.444C311.053 290.444 312.039 289.459 312.039 288.244C312.039 286.983 311.053 286.02 309.792 286.02ZM311.626 304.748V292.507H308.027V304.748H311.626ZM322.486 301.722C322.234 301.791 321.959 301.814 321.661 301.814C320.263 301.814 319.529 301.264 319.529 299.866V295.602H322.555V292.507H319.529V288.679H315.999V292.507H313.753V295.602H315.953V300.301C315.953 303.166 317.627 304.909 320.813 304.909C321.409 304.909 321.959 304.84 322.486 304.679V301.722ZM328.68 304.977C330.307 304.977 331.522 304.381 332.347 303.212L332.393 303.235V304.748H335.694V297.161C335.694 293.952 333.608 292.232 330.376 292.232C327.694 292.232 325.815 293.195 324.76 295.143L327.488 296.771C328.107 295.671 329.001 295.121 330.216 295.121C331.499 295.121 332.187 295.785 332.187 296.633C332.187 297.229 331.866 297.527 331.224 297.527H330.009C328.634 297.527 327.488 297.734 326.365 298.261C325.264 298.788 324.554 299.843 324.554 301.287V301.333C324.554 302.433 324.943 303.327 325.746 303.992C326.548 304.656 327.534 304.977 328.68 304.977ZM329.711 302.364C328.794 302.364 328.153 301.951 328.153 301.126C328.153 300.209 328.978 299.728 330.009 299.728H332.164V300.003C332.164 301.356 331.247 302.364 329.711 302.364ZM347.814 304.748H351.275V286.089H347.722V293.906H347.676C346.76 292.828 345.545 292.278 344.009 292.278C342.335 292.278 340.937 292.92 339.814 294.227C338.691 295.51 338.141 296.977 338.141 298.605C338.141 300.324 338.691 301.837 339.768 303.098C340.845 304.358 342.244 304.977 343.963 304.977C345.682 304.977 346.966 304.381 347.768 303.189H347.814V304.748ZM347.814 298.605C347.814 299.522 347.516 300.278 346.943 300.874C346.37 301.447 345.636 301.745 344.788 301.745C343.94 301.745 343.207 301.447 342.633 300.874C342.06 300.278 341.762 299.522 341.762 298.605C341.762 296.794 343.069 295.51 344.788 295.51C346.507 295.51 347.814 296.794 347.814 298.605ZM353.832 298.651C353.832 300.484 354.474 301.997 355.758 303.212C357.041 304.427 358.623 305.023 360.503 305.023C362.359 305.023 363.941 304.404 365.248 303.189C366.554 301.951 367.196 300.416 367.196 298.582C367.196 296.771 366.554 295.281 365.271 294.066C363.987 292.851 362.405 292.232 360.549 292.232C358.692 292.232 357.087 292.851 355.781 294.089C354.474 295.304 353.832 296.84 353.832 298.651ZM357.5 298.605C357.5 297.711 357.798 296.954 358.371 296.381C358.944 295.785 359.655 295.487 360.503 295.487C361.351 295.487 362.084 295.785 362.657 296.381C363.23 296.954 363.528 297.711 363.528 298.605C363.528 300.439 362.245 301.745 360.526 301.745C359.677 301.745 358.944 301.447 358.371 300.874C357.798 300.278 357.5 299.522 357.5 298.605Z" fill="black"/>
<path d="M478.081 296.361H481.772V282.012H487.159V278.413H472.694V282.012H478.081V296.361ZM487.98 278.413L494.468 296.361H498.754L505.264 278.413H501.321L496.645 292.052L491.992 278.413H487.98Z" fill="black"/>
<path d="M213.398 294.553V288.514H219.282V283.993H213.398V277.985H208.784V283.993H202.745V288.514H208.784V294.553H213.398Z" fill="#04CB3A"/>
<path d="M418.563 290.832V284.793H424.447V280.272H418.563V274.264H413.949V280.272H407.91V284.793H413.949V290.832H418.563Z" fill="#04CB3A"/>
<defs>
<clipPath id="clip0_2572_499">
<rect width="104.518" height="92.9048" fill="white" transform="translate(437.149 82.9492)"/>
</clipPath>
<clipPath id="clip1_2572_499">
<rect width="114.196" height="112.26" fill="white" transform="translate(253.275 71.334)"/>
</clipPath>
</defs>
</svg>
