<svg width="102" height="80" viewBox="0 0 102 80" fill="none" xmlns="http://www.w3.org/2000/svg">
<path d="M53.2493 0C70.3475 0.306283 86.5489 6.85506 99.9559 20.1105C102.087 22.2166 102.438 24.4869 101.064 26.6372C99.2928 29.4063 95.8321 29.8231 93.3029 27.597C91.1337 25.6867 89.0402 23.669 86.732 21.9419C63.5745 4.58477 31.3643 6.55509 10.4423 26.5551C10.0634 26.9182 9.69393 27.2971 9.29924 27.6444C7.09526 29.5863 4.184 29.5042 2.23262 27.4486C0.290727 25.4025 0.281252 22.6176 2.32419 20.5178C6.27114 16.4667 10.7044 13.0028 15.548 10.0852C26.6184 3.41332 38.633 0.0757814 53.2493 0Z" fill="white" fill-opacity="0.7"/>
<path d="M50.8349 20.1846C64.7913 20.4024 76.0638 25.0346 85.3817 34.3083C87.9709 36.8849 87.7941 40.2193 85.0502 42.2054C83.0452 43.6579 80.7875 43.4242 78.6877 41.7728C76.0101 39.6667 73.4083 37.3775 70.4686 35.7071C55.6218 27.2764 37.4121 29.5341 24.9682 41.3592C21.4128 44.7377 16.9638 42.7453 16.127 39.272C15.6913 37.4627 16.2123 35.9218 17.4595 34.6462C24.9903 26.9449 34.0998 22.2907 44.7534 20.7245C47.0364 20.3867 49.3572 20.3109 50.8349 20.1846Z" fill="white" fill-opacity="0.8"/>
<path d="M68.01 58.34C66.3302 58.3937 65.1588 57.459 63.9936 56.4202C58.7805 51.7786 52.8001 50.2156 46.1755 52.6501C43.9779 53.4584 41.9539 54.9772 40.1383 56.5086C37.5743 58.6684 34.8209 58.9683 32.6959 56.8875C30.5993 54.8319 30.5993 51.5355 32.6927 49.2115C43.0716 37.6769 61.316 37.7085 71.5497 49.281C73.1253 51.0618 73.5484 53.0827 72.5727 55.2772C71.7075 57.2222 70.1509 58.2453 68.01 58.34Z" fill="white" fill-opacity="0.9"/>
<path d="M51.8076 79.578C46.5313 79.5717 42.2434 75.3248 42.215 70.0738C42.1897 64.7501 46.5029 60.4464 51.8581 60.459C57.1407 60.4685 61.4066 64.7028 61.4382 69.9696C61.4697 75.3027 57.1818 79.5843 51.8076 79.578Z" fill="#04CB3A"/>
</svg>
